<?xml version="1.0" encoding="UTF-8" standalone="no"?>
<svg width="711px" height="991px" viewBox="0 0 711 991" version="1.1" xmlns="http://www.w3.org/2000/svg" xmlns:xlink="http://www.w3.org/1999/xlink">
    <!-- Generator: Sketch 39.1 (31720) - http://www.bohemiancoding.com/sketch -->
    <title>icons</title>
    <desc>Created with Sketch.</desc>
    <defs>
        <polygon id="path-1" points="0.000227573126 199.444633 143.595457 199.444633 143.595457 0.000225988701 0.000227573126 0.000225988701 0.000227573126 199.444633"></polygon>
        <ellipse id="path-3" cx="11.1205008" cy="113.068966" rx="11.1205008" ry="11.137931"></ellipse>
        <mask id="mask-4" maskContentUnits="userSpaceOnUse" maskUnits="objectBoundingBox" x="0" y="0" width="22.2410016" height="22.2758621" fill="white">
            <use xlink:href="#path-3"></use>
        </mask>
        <ellipse id="path-5" cx="56.9107981" cy="124.862069" rx="11.1205008" ry="11.137931"></ellipse>
        <mask id="mask-6" maskContentUnits="userSpaceOnUse" maskUnits="objectBoundingBox" x="0" y="0" width="22.2410016" height="22.2758621" fill="white">
            <use xlink:href="#path-5"></use>
        </mask>
        <ellipse id="path-7" cx="102.701095" cy="102.586207" rx="11.1205008" ry="11.137931"></ellipse>
        <mask id="mask-8" maskContentUnits="userSpaceOnUse" maskUnits="objectBoundingBox" x="0" y="0" width="22.2410016" height="22.2758621" fill="white">
            <use xlink:href="#path-7"></use>
        </mask>
        <ellipse id="path-9" cx="148.491393" cy="93.4137931" rx="11.1205008" ry="11.137931"></ellipse>
        <mask id="mask-10" maskContentUnits="userSpaceOnUse" maskUnits="objectBoundingBox" x="0" y="0" width="22.2410016" height="22.2758621" fill="white">
            <use xlink:href="#path-9"></use>
        </mask>
        <ellipse id="path-11" cx="189.048513" cy="71.137931" rx="11.1205008" ry="11.137931"></ellipse>
        <mask id="mask-12" maskContentUnits="userSpaceOnUse" maskUnits="objectBoundingBox" x="0" y="0" width="22.2410016" height="22.2758621" fill="white">
            <use xlink:href="#path-11"></use>
        </mask>
    </defs>
    <g id="Page-1" stroke="none" stroke-width="1" fill="none" fill-rule="evenodd">
        <g id="icons">
            <g id="beacon-icon" transform="translate(246.000000, 73.000000)">
                <rect id="background" x="0" y="0" width="200" height="200"></rect>
                <g id="Page-1" transform="translate(29.000000, 0.000000)">
                    <mask id="mask-2" fill="white">
                        <use xlink:href="#path-1"></use>
                    </mask>
                    <g id="Clip-2"></g>
                    <path d="M35.8577872,75.6126554 L45.5512646,80.6719774 L54.5904691,105.71096 L41.068074,110.525085 L32.0106635,85.4352542 L35.8577872,75.6126554 Z M136.736403,183.270282 C136.736403,188.432429 132.506387,192.632994 127.307479,192.632994 L16.2882052,192.632994 C11.0892971,192.632994 6.8592816,188.432429 6.8592816,183.270282 L6.8592816,60.9821469 C6.8592816,55.819435 11.0892971,51.6188701 16.2882052,51.6188701 L23.4567586,51.6188701 L30.3920497,70.7764972 L25.1538852,84.1516384 C24.8540576,84.9171751 24.842679,85.7635028 25.1214561,86.5358192 L35.7684648,116.029605 C36.0756885,116.879887 36.7100486,117.574237 37.5321565,117.960113 C37.9946989,118.177062 38.4953598,118.286102 38.9971585,118.286102 C39.3874464,118.286102 39.7794411,118.22 40.1543679,118.086667 L60.1335816,110.974237 C61.916617,110.339209 62.8439775,108.389492 62.2050659,106.61887 L51.5580572,77.1250847 C51.2679015,76.3222599 50.6853143,75.6561582 49.92522,75.259548 L36.8300934,68.4250847 L30.7459259,51.6188701 L127.307479,51.6188701 C132.506387,51.6188701 136.736403,55.819435 136.736403,60.9821469 L136.736403,183.270282 Z M48.376016,29.3787571 C48.376016,16.9358192 58.5707231,6.8120904 71.1008995,6.8120904 C83.6316447,6.8120904 93.8263519,16.9358192 93.8263519,29.3787571 L93.8263519,44.8075706 L48.376016,44.8075706 L48.376016,29.3787571 Z M127.307479,44.8075706 L100.685406,44.8075706 L100.685406,29.3787571 C100.685406,13.179322 87.4139101,0.000225988701 71.1008995,0.000225988701 C54.7878888,0.000225988701 41.516393,13.179322 41.516393,29.3787571 L41.516393,44.8075706 L16.2882052,44.8075706 C7.3064628,44.8075706 0.000227573126,52.0629379 0.000227573126,60.9821469 L0.000227573126,183.270282 C0.000227573126,192.188927 7.3064628,199.444859 16.2882052,199.444859 L127.307479,199.444859 C136.288653,199.444859 143.595457,192.188927 143.595457,183.270282 L143.595457,60.9821469 C143.595457,52.0629379 136.288653,44.8075706 127.307479,44.8075706 L127.307479,44.8075706 Z" id="Fill-1" fill="#FFFFFF" mask="url(#mask-2)"></path>
                </g>
            </g>
            <g id="pdp-icon" transform="translate(20.000000, 73.000000)">
                <rect id="background" x="0" y="0" width="200" height="200"></rect>
                <g id="Group-2" transform="translate(100.000000, 98.500000) rotate(-360.000000) translate(-100.000000, -98.500000) translate(0.000000, 73.000000)" fill="#FFFFFF">
                    <rect id="Rectangle-62" x="0" y="2.84217094e-14" width="193.894009" height="51" rx="25.5"></rect>
                    <rect id="Rectangle-37" transform="translate(191.388319, 25.683454) rotate(-45.000000) translate(-191.388319, -25.683454) " x="185.523756" y="19.9769153" width="11.7291261" height="11.4130776"></rect>
                </g>
                <g id="Group-3" transform="translate(3.590630, 76.517241)">
                    <rect id="Rectangle-328" fill-opacity="0.2" fill="#343434" x="0.612156612" y="0.815587522" width="44.6318828" height="41.5336746" rx="20.7668373"></rect>
                    <path d="M22.919098,27.7613118 C25.889098,27.7613118 27.599098,25.3313118 27.599098,21.2813118 C27.599098,17.2133118 25.889098,14.8013118 22.919098,14.8013118 C19.967098,14.8013118 18.257098,17.2133118 18.257098,21.2813118 C18.257098,25.3313118 19.967098,27.7613118 22.919098,27.7613118 L22.919098,27.7613118 Z M22.919098,25.6373118 C21.497098,25.6373118 20.597098,24.0353118 20.597098,21.2813118 C20.597098,18.5273118 21.497098,16.9433118 22.919098,16.9433118 C24.359098,16.9433118 25.259098,18.5273118 25.259098,21.2813118 C25.259098,24.0353118 24.359098,25.6373118 22.919098,25.6373118 L22.919098,25.6373118 Z" id="0" fill="#FFFFFF"></path>
                </g>
                <g id="Group-3-Copy" transform="translate(50.268817, 76.517241)">
                    <rect id="Rectangle-328" fill-opacity="0.2" fill="#343434" x="0.612156612" y="0.815587522" width="44.6318828" height="41.5336746" rx="20.7668373"></rect>
                    <path d="M22.289098,27.2213118 C22.289098,27.4193118 22.433098,27.5813118 22.649098,27.5813118 L24.233098,27.5813118 C24.431098,27.5813118 24.575098,27.4193118 24.575098,27.2213118 L24.575098,15.3233118 C24.575098,15.1433118 24.431098,14.9813118 24.233098,14.9813118 L23.297098,14.9813118 C23.045098,14.9813118 22.847098,15.0533118 22.667098,15.2153118 L20.363098,17.1593118 C20.201098,17.2853118 20.165098,17.3573118 20.183098,17.5553118 L20.291098,18.4553118 C20.309098,18.6353118 20.489098,18.7433118 20.669098,18.7073118 L22.289098,18.3473118 L22.289098,27.2213118 Z" id="1" fill="#FFFFFF"></path>
                </g>
                <g id="Group-3-Copy-2" transform="translate(96.947005, 76.517241)">
                    <rect id="Rectangle-328" fill="#436BE8" x="0.612156612" y="0.815587522" width="44.6318828" height="41.5336746" rx="20.7668373"></rect>
                    <path d="M22.397098,25.5653118 C23.369098,24.3233118 24.773098,22.5953118 25.547098,21.4793118 C26.267098,20.4353118 26.789098,19.6973118 26.789098,18.4913118 C26.789098,16.4933118 25.313098,14.8013118 22.649098,14.8013118 C20.453098,14.8013118 18.995098,16.6193118 18.995098,16.6193118 C18.869098,16.7633118 18.905098,16.9973118 19.013098,17.1053118 L19.913098,17.9873118 C20.057098,18.1493118 20.255098,18.1493118 20.417098,17.9873118 C20.831098,17.5373118 21.605098,16.9073118 22.487098,16.9073118 C23.819098,16.9073118 24.449098,17.7533118 24.449098,18.5813118 C24.449098,19.2113118 24.089098,19.9313118 23.513098,20.6333118 C22.325098,22.1993118 20.111098,25.0793118 18.851098,26.6273118 C18.797098,26.6993118 18.707098,26.8433118 18.707098,27.0413118 L18.707098,27.2213118 C18.707098,27.4193118 18.851098,27.5813118 19.049098,27.5813118 L26.357098,27.5813118 C26.555098,27.5813118 26.717098,27.4193118 26.717098,27.2213118 L26.717098,25.9433118 C26.717098,25.7633118 26.555098,25.6013118 26.357098,25.6013118 L22.397098,25.6013118 L22.397098,25.5653118 Z" id="2" fill="#FFFFFF"></path>
                </g>
                <g id="Group-3-Copy-3" transform="translate(143.625192, 76.517241)">
                    <rect id="Rectangle-328" fill-opacity="0.2" fill="#343434" x="0.612156612" y="0.815587522" width="44.6318828" height="41.5336746" rx="20.7668373"></rect>
                    <path d="M18.770098,26.1233118 C19.184098,26.5913118 20.318098,27.7613118 22.622098,27.7613118 C25.178098,27.7613118 26.888098,26.2493118 26.888098,24.1433118 C26.888098,22.5053118 25.646098,21.5153118 24.656098,21.1373118 L24.656098,21.0653118 C25.484098,20.6873118 26.564098,19.8053118 26.564098,18.2033118 C26.564098,16.1153118 24.764098,14.8013118 22.604098,14.8013118 C20.822098,14.8013118 19.670098,15.7553118 19.130098,16.4393118 C19.004098,16.5833118 18.968098,16.7993118 19.130098,16.9253118 L20.030098,17.7713118 C20.192098,17.9153118 20.408098,17.8973118 20.534098,17.7533118 C20.840098,17.3753118 21.434098,16.8713118 22.406098,16.8713118 C23.342098,16.8713118 24.206098,17.5553118 24.206098,18.5633118 C24.206098,19.5173118 23.432098,20.2553118 21.902098,20.2553118 L20.858098,20.2553118 C20.642098,20.2553118 20.516098,20.3813118 20.516098,20.6333118 L20.516098,21.8033118 C20.516098,22.0193118 20.660098,22.1633118 20.858098,22.1633118 L21.902098,22.1633118 C23.576098,22.1633118 24.458098,22.8833118 24.458098,24.0713118 C24.458098,25.0253118 23.630098,25.7453118 22.496098,25.7453118 C21.362098,25.7453118 20.714098,25.2413118 20.210098,24.7373118 C20.066098,24.5933118 19.904098,24.5933118 19.742098,24.7373118 L18.788098,25.6553118 C18.680098,25.7813118 18.662098,25.9793118 18.770098,26.1233118 L18.770098,26.1233118 Z" id="3" fill="#FFFFFF"></path>
                </g>
            </g>
            <g id="home-icon" transform="translate(20.000000, 15.000000)" fill="#FFFFFF">
                <path d="M16.3365653,-2.30926389e-14 L32.6731306,16.0478327 L30.6734636,18.0626487 L16.3365653,3.99428435 L1.99966701,18.0626487 L3.55271368e-15,16.0478327 L16.3365653,-2.30926389e-14 Z M25.4779002,24.884745 L25.4779002,16.1538757 L28.3345673,18.9640138 L28.3345673,27.7125569 L18.621899,27.7125569 L18.621899,18.6635587 L14.0512316,18.6635587 L14.0512316,27.7125569 L4.33856324,27.7125569 L4.33856324,18.9640138 L7.1952304,16.1538757 L7.1952304,24.884745 L11.1945644,24.884745 L11.1945644,15.8357468 L21.4785662,15.8357468 L21.4785662,24.884745 L25.4779002,24.884745 Z" id="home"></path>
            </g>
            <g id="adf-icon" transform="translate(472.000000, 73.000000)">
                <rect id="background" x="0" y="0" width="200" height="200"></rect>
                <path d="M98.4051029,197.624002 C96.5269152,197.624002 94.8010131,196.610668 93.8873002,194.888002 L87.8466427,183.386668 C55.0545019,178.826668 27.1354965,156.685335 15.2572288,125.829334 L5.71400516,126.994668 C5.51095784,127.045335 5.30791053,127.045335 5.10486322,127.045335 C3.17591376,127.045335 1.39924979,125.981334 0.536298712,124.208001 C-0.428176018,122.282668 -0.072843223,119.952001 1.45001161,118.432001 L10.6379025,109.058668 C9.72418956,103.840001 9.26733311,98.4693342 9.26733311,93.1493342 C9.26733311,78.6586674 12.7698992,64.2693339 19.3689369,51.4506671 C25.1050234,40.3040004 33.2269159,30.3733336 43.0239487,22.4186669 L38.9630024,13.7040001 C38.0492895,11.7786668 38.4553841,9.44800007 40.0290008,7.92800006 C40.9934755,6.96533338 42.2625212,6.45866671 43.5823288,6.45866671 C44.3437562,6.45866671 45.1051836,6.61066671 45.8158492,6.96533338 L57.4910696,12.7413334 C70.6891448,5.6986667 85.5115986,2 100.5371,2 C118.303739,2 135.359714,7.06666671 150.182167,16.6426668 L157.136538,10.1573334 C158.101012,9.2453334 159.370058,8.7893334 160.588342,8.7893334 C161.400531,8.7893334 162.212721,8.99200007 162.923386,9.34666674 C164.852336,10.3600001 165.918334,12.4373334 165.613763,14.5653335 L163.735575,27.3333336 C181.603739,44.4586671 191.806866,68.2720006 191.806866,93.0480009 C191.806866,101.053334 190.79163,108.957334 188.710395,116.658668 L196.984573,121.218668 C198.86276,122.282668 199.877997,124.360001 199.522664,126.488001 C199.167331,128.616001 197.492191,130.288001 195.360194,130.642668 L182.669737,132.821335 C168.151854,162.664002 138.354661,182.322668 105.25795,184.045335 L103.430524,193.418668 C103.024429,195.546668 101.298527,197.168002 99.1665303,197.472002 C98.8619593,197.624002 98.658912,197.624002 98.4051029,197.624002 Z M181.502266,118.280001 C186.273878,102.776001 186.476925,85.7520008 181.045409,69.1840006 C177.238272,57.5306672 171.096091,47.3466671 163.27877,38.9360003 L160.182298,57.9866672 C159.979251,59.3546672 158.811729,60.4186672 157.441159,60.5200005 L136.730334,62.2426672 C141.451184,67.1573339 145.207559,73.1866673 147.441079,80.0773341 C149.6746,86.9173341 150.23298,93.8586675 149.319267,100.546668 L137.542523,94.0613342 L152.212691,130.186668 C152.771071,131.504001 154.141641,132.264001 155.562972,132.061335 L194.446532,125.424001 L181.502266,118.280001 Z M101.197003,177.661335 C117.440788,177.408002 133.735335,172.341335 147.847123,162.056001 C157.74568,154.861335 165.563001,145.893335 171.197564,135.861335 L152.111117,138.850668 C150.740547,139.053335 149.369978,138.293335 148.811598,137.026668 L140.791229,117.925334 C137.593234,123.954668 132.973908,129.325335 127.085536,133.581335 C121.247925,137.786668 114.801173,140.472001 108.151374,141.688001 L110.689465,128.514668 L80.7907486,153.594668 C79.6739884,154.506668 79.3694174,156.077335 80.0293212,157.344001 L98.354341,192.202668 L101.197003,177.661335 Z M19.7750822,119.800001 C25.0543123,135.101335 34.902107,149.034668 49.0646569,159.269335 C58.9632134,166.464002 69.97853,171.074668 81.2476558,173.304002 L72.5166214,156.077335 C71.9074795,154.810668 72.1612886,153.290668 73.227287,152.378668 L88.9634536,138.850668 C82.2628924,137.634668 75.7146166,134.949335 69.8262445,130.693335 C63.9886343,126.488001 59.4708316,121.168001 56.2728365,115.240001 L69.6231972,113.568001 L36.4249618,92.9973342 C35.2066779,92.2373342 33.6330613,92.4400008 32.6178247,93.4533342 L5.05415216,121.624001 L19.7750822,119.800001 Z M49.7245607,24.6480002 C36.7802946,34.3760003 26.5771672,48.0560004 21.1964134,64.6240006 C17.3892763,76.277334 16.3740398,88.1333341 17.7446091,99.5333342 L31.4503027,85.9546675 C32.4655392,84.9920008 33.988394,84.7893341 35.1559161,85.4986674 L52.9225559,96.2400009 C51.9580811,89.5013342 52.5164612,82.4586674 54.7499817,75.517334 C56.9835021,68.677334 60.6383537,62.7493339 65.3084419,57.8346672 L70.9937666,69.9946673 L80.4354666,32.1466669 C80.7907994,30.7786669 80.1308956,29.3093336 78.8110881,28.7013336 L43.430094,11.2213334 L49.7245607,24.6480002 Z M149.674549,23.6853335 C136.37495,14.3626668 120.232689,8.9413334 102.77062,8.9413334 C90.5370196,8.9413334 78.912561,11.6266668 68.4556244,16.4400001 L85.6638841,25.2560002 C86.9329298,25.9146669 87.5420717,27.2826669 87.2375007,28.6506669 L82.4658889,48.8160004 C88.6080701,45.8266671 95.5116787,44.1546671 102.77062,44.1546671 C109.9788,44.1546671 116.780885,45.7760004 122.872304,48.7146671 L113.024509,57.8853339 L152.009593,55.1493338 C153.430924,55.0480005 154.598446,53.9840005 154.801494,52.5653338 L160.53758,13.6026668 L149.674549,23.6853335 Z" id="Combined-Shape" fill="#F0AB00"></path>
            </g>
            <g id="blues-icon" transform="translate(20.000000, 296.000000)">
                <rect id="background" x="0" y="0" width="200" height="200"></rect>
                <rect id="Rectangle" fill="#66EAEE" x="0" y="164.496826" width="40" height="35.4968262"></rect>
                <rect id="Rectangle-Copy-4" fill="#4BC0F4" x="40" y="129" width="40" height="70.9936523"></rect>
                <rect id="Rectangle-Copy-12" fill="#4CA4F6" x="80" y="91" width="39" height="108.993652"></rect>
                <rect id="Rectangle-Copy-13" fill="#5A63FC" x="119" y="39" width="39" height="160.993652"></rect>
                <rect id="Rectangle-Copy-14" fill="#674EFC" x="158" y="113" width="42" height="86.9936523"></rect>
            </g>
            <g id="whisky-icon" transform="translate(238.000000, 296.000000)">
                <rect id="Rectangle-Copy-5" x="8" y="0" width="200" height="200"></rect>
                <rect id="Rectangle-2" fill="#1E4CD3" x="8" y="44" width="200" height="113"></rect>
                <polygon id="Rectangle-3" fill="#FFFFFF" transform="translate(106.638946, 102.805628) rotate(-330.000000) translate(-106.638946, -102.805628) " points="13.1832715 88.8056282 215.661417 88.8056282 221.53588 99.0654587 190.925071 116.805628 0.860651808 116.805628 -8.25798897 101.204121"></polygon>
                <polygon id="Rectangle-3" fill="#FFFFFF" transform="translate(109.167548, 102.483194) rotate(-30.000000) translate(-109.167548, -102.483194) " points="-5.72038614 99.1251883 0.431656285 88.4831939 201.93364 88.4831939 224.055482 101.278684 215.339534 116.483194 24.3393687 116.483194"></polygon>
            </g>
            <g id="metrics-icon" transform="translate(472.000000, 296.000000)">
                <rect id="background" x="0" y="0" width="200" height="200"></rect>
                <polyline id="Path-2" stroke="#FF0076" stroke-width="5" points="11.410523 113.079203 57.3950203 126.444976 103.47534 102.398101 149.555659 93.5072064 191.053116 70.3829472"></polyline>
                <use id="Oval" stroke="#FF0075" mask="url(#mask-4)" stroke-width="10" fill="#FFFFFF" xlink:href="#path-3"></use>
                <use id="Oval-Copy" stroke="#FF0075" mask="url(#mask-6)" stroke-width="10" fill="#FFFFFF" xlink:href="#path-5"></use>
                <use id="Oval-Copy-2" stroke="#FF0075" mask="url(#mask-8)" stroke-width="10" fill="#FFFFFF" xlink:href="#path-7"></use>
                <use id="Oval-Copy-3" stroke="#FF0075" mask="url(#mask-10)" stroke-width="10" fill="#FFFFFF" xlink:href="#path-9"></use>
                <use id="Oval-Copy-4" stroke="#FF0075" mask="url(#mask-12)" stroke-width="10" fill="#FFFFFF" xlink:href="#path-11"></use>
            </g>
            <g id="sow-icon" transform="translate(20.000000, 519.000000)">
                <rect id="Rectangle-Copy-2" x="0" y="0" width="200" height="200"></rect>
                <path d="M99.3876453,0.00132411726 L32.9994696,66.2892821 L32.9994696,198.865198 L165.775821,198.865198 L165.775821,66.2892821 L99.3876453,0.00132411726 Z M49.4990437,73.1164307 L99.3876453,23.3004913 L149.273595,73.1164307 L149.273595,182.39318 L49.4990437,182.39318 L49.4990437,73.1164307 Z" id="Fill-1" fill="#208683"></path>
                <path d="M78.1307514,114.981046 C77.815135,124.911925 82.5918161,134.848101 86.9706615,142.053947 C71.0572319,144.861076 62.3578905,134.837508 61.0423803,123.217055 C58.4325778,100.209194 76.8285024,85.7630746 89.9199504,77.9137075 C88.3710432,85.2493171 85.496017,91.6342105 86.3818646,99.0995836 C87.6920703,110.081812 98.1471935,113.619853 100.523599,120.274867 C103.478192,128.537358 98.8686023,135.85443 92.8639349,139.697019 C84.5491679,134.861342 81.1728686,125.086709 78.1307514,114.981046 Z M119.381543,138.523056 C114.750735,139.296341 107.040679,144.897357 99.3438834,142.646357 C98.3784686,135.024739 100.632871,129.971907 106.420055,128.518026 C109.711483,127.699722 113.660665,129.235698 117.617805,128.518026 C125.935224,127.021774 129.11791,119.982766 132.348336,113.807084 C144.06062,136.32767 115.885893,169.480918 101.115579,146.176454 C108.992726,145.408466 113.93915,141.719475 119.381543,138.523056 Z M92.2711596,143.23506 C92.9554371,155.157412 95.7217216,166.372685 102.288663,174.415373 C104.047097,176.56574 111.409711,182.185293 110.545081,183.832495 C107.56927,189.473235 98.8381015,179.785993 97.5782883,177.94547 C91.3720508,168.922935 90.9715629,157.188608 92.2711596,143.23506 Z" id="Combined-Shape" fill="#208683"></path>
            </g>
            <g id="cbt-icon" transform="translate(246.000000, 519.000000)">
                <rect id="Rectangle-Copy-6" x="0" y="0" width="200" height="200"></rect>
                <path d="M186.740042,21.7506254 C180.764975,17.6769856 173.014297,17.4237023 166.623511,18.2257661 C166.306438,14.9752971 165.777983,13.3101939 165.777983,13.3101939 C105.066691,-12.1377423 31.6137551,13.3101939 31.6137551,13.3101939 C31.674821,16.0259537 31.8791571,18.7346779 32.1469078,21.4387117 C26.0003856,20.5592558 18.1111354,20.6108505 12.103186,24.7478111 C8.50499268,27.224359 4.18105411,32.1797999 4.00490234,41.7412445 C3.71131608,57.7098186 16.6549475,64.9846779 29.1758147,72.0203252 C38.9322736,77.5034396 49.0245952,83.1765166 54.3843061,93.0967792 C55.9743694,96.040025 56.3478111,98.5822389 55.5257696,100.864134 C53.9662393,105.207473 48.3857515,108.286742 46.3917135,109.098186 C43.3759954,110.289556 41.901018,113.697154 43.0941526,116.708412 C44.007793,119.009068 46.2179105,120.413852 48.5548572,120.413852 C49.2759051,120.413852 50.0063477,120.280175 50.7156521,119.998749 C51.9510631,119.510944 62.8912619,114.935428 66.5481724,104.911976 C66.6115871,104.73843 66.665607,104.536742 66.7266729,104.353815 C75.4544055,116.858505 84.0200785,127.015635 90.0914425,133.737023 L80.7389584,158.849593 L67.1259502,158.849593 L67.1259502,175.301282 L58.675363,175.301282 L58.675363,197.848186 L142.375634,197.848186 L142.375634,175.301282 L133.927396,175.301282 L133.927396,158.849593 L117.789546,158.849593 L108.505173,132.618355 C115.941126,124.658693 122.456393,117.053158 128.14492,109.825203 C132.581596,119.419481 143.303367,123.856629 144.574008,124.353815 C145.276266,124.628205 145.997314,124.757192 146.708967,124.757192 C149.057658,124.757192 151.272472,123.343027 152.179067,121.028299 C153.360458,118.010006 151.86904,114.609443 148.848624,113.432145 C146.737152,112.608974 140.301741,109.142745 138.502644,104.210757 C137.560819,101.621639 137.978886,98.7581301 139.787378,95.4584115 C145.741307,84.5883365 156.937513,78.3219199 167.764975,72.2642276 C181.450792,64.6024078 195.60165,56.6826141 195.289275,39.6586929 C195.099031,29.5461226 190.535526,24.3397436 186.740042,21.7506254 L186.740042,21.7506254 Z M34.934803,61.8022201 C22.5759954,54.8533458 15.5886422,50.507661 15.7460044,41.9570044 C15.8493468,36.41995 18.0359773,34.9049406 18.7570252,34.4077548 C22.4773504,31.8397436 29.3871968,32.6582239 34.0258599,33.7276423 C36.4778924,45.6413383 40.6092384,57.2384303 45.6636196,68.1530644 C42.0865645,65.8289556 38.4343513,63.7698562 34.934803,61.8022201 L34.934803,61.8022201 Z M162.022427,62.0343965 C160.08006,63.1202314 158.093069,64.2365541 156.096682,65.3974359 C162.900837,50.5827079 165.597134,38.746404 166.480241,30.1183552 C171.229293,29.3303627 176.800386,29.1638524 180.12848,31.4434021 C180.945824,32.0015635 183.430738,33.7018449 183.545824,39.876798 C183.724324,49.4007192 175.48277,54.5015635 162.022427,62.0343965 L162.022427,62.0343965 Z" id="Imported-Layers" fill="#F0AB00"></path>
            </g>
            <g id="hex-icon" transform="translate(472.000000, 519.000000)">
                <rect id="background" x="0" y="0" width="200" height="200"></rect>
                <polygon id="Shape" fill="#57FFAB" points="122.427441 190 129.287599 156.195846 48.0211082 156.195846 41.1609499 190 27.4406332 190 34.3007916 156.195846 0 156.195846 3.16622691 142.462908 37.4670185 142.462908 53.298153 60.5934718 19.525066 60.5934718 22.1635884 46.8605341 56.9920844 46.8605341 63.8522427 12 77.5725594 12 70.7124011 46.8605341 152.506596 46.8605341 159.366755 12 173.087071 12 166.226913 46.8605341 200 46.8605341 197.361478 60.5934718 162.532982 60.5934718 146.174142 142.462908 180.474934 142.462908 177.308707 156.195846 143.007916 156.195846 136.147757 190"></polygon>
            </g>
            <g id="sains-icon" transform="translate(20.000000, 742.000000)">
                <rect id="background" x="0" y="0" width="200" height="200"></rect>
                <path d="M115.111159,82.8593496 C73.4820139,82.8593496 77.5819654,100.234309 0,100.234309 C77.5819654,100.234309 73.4820139,117.609268 115.111159,117.609268 C156.740305,117.609268 156.740305,100.234309 199,100.234309 C156.740305,100.234309 156.740305,82.8593496 115.111159,82.8593496" id="Fill-1" fill="#FCAF17"></path>
                <path d="M0,100.234309 C77.5819654,100.234309 73.4820139,128.011382 115.111159,128.011382 C156.740305,128.011382 156.740305,100.234309 199,100.234309 C156.740305,100.234309 156.740305,72.4572358 115.111159,72.4572358 C73.4820139,72.4572358 77.5819654,100.234309 0,100.234309 Z" id="Fill-4" fill="#EE8D02" opacity="0.73828125"></path>
                <path d="M119.265801,97.1479675 C102.261182,97.1479675 91.4572748,82.9736585 61.1247113,82.9736585 C30.7921478,82.9736585 30.7921478,100.348618 0,100.348618 C30.7921478,100.348618 30.7921478,117.723577 61.1247113,117.723577 C91.4572748,117.723577 102.261182,103.549268 119.265801,103.549268 C143.160508,103.549268 142.011547,112.693984 157.637413,112.693984 C173.263279,112.693984 176.939954,100.348618 199,100.348618 C176.939954,100.348618 173.263279,88.003252 157.637413,88.003252 C142.011547,88.003252 143.160508,97.1479675 119.265801,97.1479675 Z" id="Fill-7" fill="#FCAF17" opacity="0.676189366"></path>
            </g>
            <g id="pinterest" transform="translate(68.000000, 18.000000)">
                <rect id="background" fill="#D8D8D8" opacity="0" x="0" y="0" width="26" height="26"></rect>
                <path d="M14.9692473,18.7906896 C13.386309,18.7906896 11.8973453,17.9188502 11.3880814,16.9295045 C11.3880814,16.9295045 10.5361196,20.3704327 10.3566111,21.0342 C9.72186017,23.3808867 7.85474697,25.729293 7.70956457,25.9207423 C7.60827453,26.0548714 7.38543642,26.0136009 7.36123936,25.8359085 C7.32128606,25.5372705 6.84466012,22.5755387 7.40569443,20.1612142 C7.68649295,18.9477468 9.29137747,12.0229002 9.29137747,12.0229002 C9.29137747,12.0229002 8.82375509,11.069093 8.82375509,9.65959065 C8.82375509,7.4464599 10.083128,5.79392015 11.6514356,5.79392015 C12.9845251,5.79392015 13.6288424,6.81364551 13.6288424,8.03628418 C13.6288424,9.40165001 12.7751924,11.4439667 12.3340179,13.3355315 C11.9665602,14.9204335 13.114514,16.2124295 14.6479328,16.2124295 C17.425531,16.2124295 19.2965832,12.5777592 19.2965832,8.27186997 C19.2965832,4.99888975 17.1329153,2.5484536 13.1961088,2.5484536 C8.75003845,2.5484536 5.97750477,5.92747608 5.97750477,9.70143436 C5.97750477,11.0020284 6.35509156,11.9208703 6.94538744,12.6304937 C7.21605696,12.9566453 7.25488481,13.0879085 7.15640837,13.4627822 C7.08437989,13.7384921 6.92400399,14.3993934 6.85647729,14.6613464 C6.7591263,15.0396594 6.45806977,15.1749349 6.12212445,15.0345005 C4.07437733,14.1832964 3.12,11.8985155 3.12,9.32942662 C3.12,5.08716277 6.63251374,0 13.5978926,0 C19.1964186,0 22.88,4.12533076 22.88,8.55560468 C22.88,14.4137234 19.6826109,18.7906896 14.9692473,18.7906896" id="Shape" fill="#FFFFFF"></path>
            </g>
            <g id="linkedin" transform="translate(105.000000, 18.000000)">
                <rect id="background" fill="#D8D8D8" opacity="0" x="0" y="0" width="26" height="26"></rect>
                <rect id="Rectangle-path" fill="#FFFFFF" x="0.965333333" y="9.0558" width="5.26933333" height="16.9442"></rect>
                <path d="M3.57466667,6.83691667 C1.854,6.83691667 0.458666667,5.43684375 0.458666667,3.71030833 C0.458666667,1.98377292 1.854,0.5837 3.57466667,0.5837 C5.296,0.5837 6.69066667,1.98377292 6.69066667,3.71030833 C6.69066667,5.43618021 5.296,6.83691667 3.57466667,6.83691667" id="Shape" fill="#FFFFFF"></path>
                <path d="M20.738,26 L20.738,17.105224 C20.738,14.6653812 19.8073333,13.3037937 17.8686667,13.3037937 C15.76,13.3037937 14.658,14.7224458 14.658,17.105224 L14.658,26 L9.604,26 L9.604,9.0558 L14.658,9.0558 L14.658,11.3377198 C14.658,11.3377198 16.178,8.53890104 19.788,8.53890104 C23.398,8.53890104 25.982,10.7325698 25.982,15.2711948 L25.982,26 L20.738,26 Z" id="Shape" fill="#FFFFFF"></path>
            </g>
            <g id="twitter" transform="translate(142.000000, 18.000000)">
                <rect id="background" fill="#D8D8D8" opacity="0" x="0" y="0" width="26" height="26"></rect>
                <path d="M23.204381,7.76508353 C23.53,15.1292624 18.1102381,23.3399706 8.51252381,23.3399706 C5.59371429,23.3399706 2.87671429,22.4727482 0.589333333,20.9872459 C3.33109524,21.3139435 6.06852381,20.5445424 8.24138095,18.8188765 C5.98,18.7768635 4.07085714,17.2631435 3.41342857,15.1831894 C4.22314286,15.3399541 5.01985714,15.2941788 5.7472381,15.09352 C3.26114286,14.5868565 1.5457619,12.3194118 1.60147619,9.89394824 C2.29852381,10.28586 3.09585714,10.5216341 3.94333333,10.5479706 C1.64109524,8.99035647 0.989238095,5.91149765 2.34371429,3.55814588 C4.89233333,6.72604706 8.70071429,8.81039059 12.9969048,9.02923412 C12.2435238,5.75347882 14.6961905,2.6 18.0322381,2.6 C19.5185714,2.6 20.8619048,3.23521059 21.8047143,4.25292706 C22.9821429,4.01840706 24.088381,3.58260118 25.0869048,2.98250588 C24.7012381,4.20527059 23.881619,5.23176588 22.814381,5.87889059 C23.8599524,5.75285176 24.856,5.47130235 25.7833333,5.05493529 C25.090619,6.10525882 24.2140476,7.02703529 23.204381,7.76508353" id="Shape" fill="#FFFFFF"></path>
            </g>
            <g id="instagram" transform="translate(179.000000, 18.000000)">
                <rect id="background" fill="#D8D8D8" opacity="0" x="0" y="0" width="26" height="26"></rect>
                <g id="Group" fill="#FFFFFF">
                    <path d="M12.9795186,0.0409628009 C9.45449891,0.0409628009 9.01249891,0.0558118162 7.62812691,0.119076586 C6.24654267,0.182170678 5.30303282,0.401549234 4.4775186,0.722367615 C3.62395624,1.05405252 2.90010941,1.49787309 2.17853829,2.2194442 C1.45696718,2.94101532 1.01314661,3.66491904 0.6815186,4.51842451 C0.36052954,5.34405252 0.141150985,6.28756236 0.0781706783,7.66908972 C0.0149628009,9.05346171 5.6892779e-05,9.49540481 5.6892779e-05,13.0204245 C5.6892779e-05,16.545558 0.0149628009,16.9875011 0.0781706783,18.3718731 C0.141150985,19.7534004 0.36052954,20.6969103 0.6815186,21.5225383 C1.01314661,22.3760438 1.45696718,23.0999475 2.17853829,23.8215186 C2.90010941,24.5430897 3.62395624,24.9869103 4.4775186,25.3185952 C5.30303282,25.6394136 6.24654267,25.8587921 7.62812691,25.9218862 C9.01249891,25.9850372 9.45449891,26 12.9795186,26 C16.5045383,26 16.9465952,25.9850372 18.3309672,25.9218862 C19.7124945,25.8587921 20.6560044,25.6394136 21.4815755,25.3185952 C22.3351379,24.9869103 23.0589278,24.5430897 23.7804989,23.8215186 C24.50207,23.0999475 24.9458906,22.3760438 25.2775755,21.5225383 C25.5985077,20.6969103 25.8178862,19.7534004 25.8809234,18.3718731 C25.9441313,16.9875011 25.9589803,16.545558 25.9589803,13.0204245 C25.9589803,9.49540481 25.9441313,9.05346171 25.8809234,7.66908972 C25.8178862,6.28756236 25.5985077,5.34405252 25.2775755,4.51842451 C24.9458906,3.66491904 24.50207,2.94101532 23.7804989,2.2194442 C23.0589278,1.49787309 22.3351379,1.05405252 21.4815755,0.722367615 C20.6560044,0.401549234 19.7124945,0.182170678 18.3309672,0.119076586 C16.9465952,0.0558118162 16.5045383,0.0409628009 12.9795186,0.0409628009 M12.9795186,2.37959737 C16.4451991,2.37959737 16.8556236,2.3927965 18.2243501,2.45520788 C19.4898162,2.51295405 20.177081,2.7244814 20.634442,2.90215755 C21.2403501,3.13763676 21.6727352,3.41891466 22.1268534,3.87308972 C22.5811422,4.32732166 22.8624201,4.75964989 23.0977856,5.36550109 C23.2754617,5.82286214 23.4869891,6.51018381 23.5447352,7.775593 C23.6071466,9.14431947 23.6204026,9.55474398 23.6204026,13.0204245 C23.6204026,16.4862188 23.6071466,16.8966433 23.5447352,18.265256 C23.4869891,19.530779 23.2754617,20.2181007 23.0977856,20.6754617 C22.8624201,21.281256 22.5811422,21.7136411 22.1268534,22.1678731 C21.6727352,22.6220481 21.2403501,22.903326 20.634442,23.1387484 C20.177081,23.3164814 19.4898162,23.5280088 18.2243501,23.5856411 C16.8558512,23.6481663 16.4454836,23.6613085 12.9795186,23.6613085 C9.51355361,23.6613085 9.103186,23.6481663 7.73468709,23.5856411 C6.4692779,23.5280088 5.78195624,23.3164814 5.32459519,23.1387484 C4.71874398,22.903326 4.28635886,22.6220481 3.83218381,22.1678731 C3.37806565,21.7136411 3.09678775,21.281256 2.86130853,20.6754617 C2.68357549,20.2181007 2.47210503,19.530779 2.41430197,18.265256 C2.35194748,16.8966433 2.33869147,16.4862188 2.33869147,13.0204245 C2.33869147,9.55474398 2.35194748,9.14431947 2.41430197,7.775593 C2.47210503,6.51018381 2.68357549,5.82286214 2.86130853,5.36550109 C3.09678775,4.75964989 3.37806565,4.32732166 3.83218381,3.87308972 C4.28635886,3.41891466 4.71874398,3.13763676 5.32459519,2.90215755 C5.78195624,2.7244814 6.4692779,2.51295405 7.73468709,2.45520788 C9.10341357,2.3927965 9.51383807,2.37959737 12.9795186,2.37959737" id="Fill-1"></path>
                    <path d="M12.9795186,17.3469497 C10.5900788,17.3469497 8.65299344,15.4099212 8.65299344,13.0204245 C8.65299344,10.6309847 10.5900788,8.69395624 12.9795186,8.69395624 C15.3690153,8.69395624 17.3060438,10.6309847 17.3060438,13.0204245 C17.3060438,15.4099212 15.3690153,17.3469497 12.9795186,17.3469497 M12.9795186,6.35532166 C9.29849891,6.35532166 6.31441575,9.33946171 6.31441575,13.0204245 C6.31441575,16.701558 9.29849891,19.6855842 12.9795186,19.6855842 C16.6605383,19.6855842 19.6446214,16.701558 19.6446214,13.0204245 C19.6446214,9.33946171 16.6605383,6.35532166 12.9795186,6.35532166" id="Fill-4"></path>
                    <path d="M21.4655886,6.09196499 C21.4655886,6.95212691 20.7682538,7.6495186 19.908035,7.6495186 C19.0478731,7.6495186 18.3504814,6.95212691 18.3504814,6.09196499 C18.3504814,5.23174617 19.0478731,4.53441138 19.908035,4.53441138 C20.7682538,4.53441138 21.4655886,5.23174617 21.4655886,6.09196499" id="Fill-5"></path>
                </g>
            </g>
        </g>
    </g>
</svg>