<?xml version="1.0" encoding="utf-8"?>
<!-- Generator: Adobe Illustrator 18.1.1, SVG Export Plug-In . SVG Version: 6.00 Build 0)  -->
<svg version="1.1" xmlns="http://www.w3.org/2000/svg" xmlns:xlink="http://www.w3.org/1999/xlink" x="0px" y="0px"
	 viewBox="0 0 600 600" enable-background="new 0 0 600 600" xml:space="preserve">
<g id="shadow">
	
		<path fill="#FFFFFF" stroke="#000030" stroke-width="5" stroke-linecap="round" stroke-linejoin="round" stroke-miterlimit="10" d="
		M234.5,166.5v61h73v-61H234.5z"/>
	<path fill="#000030" d="M310,197.2c0,0-18-3.9-40.3-3.9c-25.5,0-36.1,3.9-36.1,3.9v-24.1H310V197.2z"/>
</g>
<g id="illustration">
	<g>
		<g>
			<g>
				
					<path fill="#FFFFFF" stroke="#000030" stroke-width="5" stroke-linecap="round" stroke-linejoin="round" stroke-miterlimit="10" d="
					M534.3,236.5c0,9.8,0,21,0,21H428.7c0,0,0-15.5,0-20.7c0-52.3-124-56.1-153.9-57.4l-10.3,0c-30.7,1.4-154.6,5.1-154.6,57.4
					c0,5.2,0,20.7,0,20.7H3.7c0,0,0-11.2,0-21c0,1.5-6.3-63.8,60-76.1c58.1-10.8,173.4-12.6,200.8-12.9v-0.1h10.3v0.1
					c27.3,0.3,142.1,2.1,199.8,12.9C540.6,172.7,534.3,238,534.3,236.5z"/>
				
					<path fill="none" stroke="#000030" stroke-width="5" stroke-linecap="round" stroke-linejoin="round" stroke-miterlimit="10" d="
					M109,236.5H4"/>
				
					<line fill="none" stroke="#000030" stroke-width="5" stroke-linecap="round" stroke-linejoin="round" stroke-miterlimit="10" x1="534" y1="236.5" x2="430" y2="236.5"/>
				
					<path fill="none" stroke="#000030" stroke-width="5" stroke-linecap="round" stroke-linejoin="round" stroke-miterlimit="10" d="
					M110.1,233.6c0,0,1.1-63.1,161.6-63.1h-4.5c161,0,161.3,62.8,161.3,62.8"/>
			</g>
			
				<path fill="#FFFFFF" stroke="#000030" stroke-width="5" stroke-linecap="round" stroke-linejoin="round" stroke-miterlimit="10" d="
				M506.4,432.3H42.3c0,0,4.3-110.5,74.1-146c69.9-35.4,77.9-119.4,77.9-119.4h20.4v41.4h112.3v-41.4h21.4c0,0,8.9,83.9,81.4,119.4
				C502.5,321.7,506.4,432.3,506.4,432.3z"/>
			<g>
				<g>
					<circle fill="#000030" cx="280.3" cy="332.1" r="92.8"/>
					
						<circle fill="#FFFFFF" stroke="#000030" stroke-width="5" stroke-linecap="round" stroke-linejoin="round" stroke-miterlimit="10" cx="271.1" cy="322.9" r="92.8"/>
					<path fill="#FFFFFF" stroke="#000030" stroke-linecap="round" stroke-linejoin="round" stroke-miterlimit="10" d="M284.4,255.2
						c0,7.4-6,13.3-13.3,13.3c-7.4,0-13.3-6-13.3-13.3s6-13.3,13.3-13.3C278.5,241.9,284.4,247.9,284.4,255.2z M284.4,391
						c0,7.4-6,13.3-13.3,13.3c-7.4,0-13.3-6-13.3-13.3c0-7.4,6-13.3,13.3-13.3C278.5,377.7,284.4,383.6,284.4,391z"/>
					<path fill="#FFFFFF" stroke="#000030" stroke-linecap="round" stroke-linejoin="round" stroke-miterlimit="10" d="M316.6,375.2
						c3.7,6.4,1.5,14.5-4.9,18.2c-6.4,3.7-14.5,1.5-18.2-4.9c-3.7-6.4-1.5-14.5,4.9-18.2C304.8,366.7,312.9,368.9,316.6,375.2z"/>
					<path fill="#FFFFFF" stroke="#000030" stroke-linecap="round" stroke-linejoin="round" stroke-miterlimit="10" d="M219,277.6
						c6.4,3.7,8.6,11.8,4.9,18.2c-3.7,6.4-11.8,8.6-18.2,4.9c-6.4-3.7-8.6-11.8-4.9-18.2C204.4,276.1,212.6,273.9,219,277.6z
						 M336.6,345.5c6.4,3.7,8.6,11.8,4.9,18.2s-11.8,8.6-18.2,4.9c-6.4-3.7-8.6-11.8-4.9-18.2C322,344,330.2,341.8,336.6,345.5z"/>
					<path fill="#FFFFFF" stroke="#000030" stroke-linecap="round" stroke-linejoin="round" stroke-miterlimit="10" d="M203.2,309.8
						c7.4,0,13.3,6,13.3,13.3s-6,13.3-13.3,13.3c-7.4,0-13.3-6-13.3-13.3S195.8,309.8,203.2,309.8z M339,309.8
						c7.4,0,13.3,6,13.3,13.3s-6,13.3-13.3,13.3c-7.4,0-13.3-6-13.3-13.3S331.6,309.8,339,309.8z"/>
					<path fill="#FFFFFF" stroke="#000030" stroke-linecap="round" stroke-linejoin="round" stroke-miterlimit="10" d="M205.6,345.5
						c6.4-3.7,14.5-1.5,18.2,4.9c3.7,6.4,1.5,14.5-4.9,18.2c-6.4,3.7-14.5,1.5-18.2-4.9C197.1,357.3,199.3,349.2,205.6,345.5z
						 M323.2,277.6c6.4-3.7,14.5-1.5,18.2,4.9s1.5,14.5-4.9,18.2c-6.4,3.7-14.5,1.5-18.2-4.9C314.7,289.4,316.9,281.3,323.2,277.6z"
						/>
					<path fill="#FFFFFF" stroke="#000030" stroke-linecap="round" stroke-linejoin="round" stroke-miterlimit="10" d="M225.6,375.2
						c3.7-6.4,11.8-8.6,18.2-4.9c6.4,3.7,8.6,11.8,4.9,18.2c-3.7,6.4-11.8,8.6-18.2,4.9C224.1,389.8,221.9,381.6,225.6,375.2z
						 M293.5,257.6c3.7-6.4,11.8-8.6,18.2-4.9c6.4,3.7,8.6,11.8,4.9,18.2s-11.8,8.6-18.2,4.9C292,272.2,289.8,264,293.5,257.6z"/>
					<path fill="#FFFFFF" stroke="#000030" stroke-linecap="round" stroke-linejoin="round" stroke-miterlimit="10" d="M286,256.7
						c0,7.4-6,13.3-13.3,13.3c-7.4,0-13.3-6-13.3-13.3c0-7.4,6-13.3,13.3-13.3C280,243.4,286,249.4,286,256.7z M286,392.5
						c0,7.4-6,13.3-13.3,13.3c-7.4,0-13.3-6-13.3-13.3c0-7.4,6-13.3,13.3-13.3C280,379.2,286,385.2,286,392.5z"/>
					<path fill="#FFFFFF" stroke="#000030" stroke-linecap="round" stroke-linejoin="round" stroke-miterlimit="10" d="M318.1,376.8
						c3.7,6.4,1.5,14.5-4.9,18.2c-6.4,3.7-14.5,1.5-18.2-4.9c-3.7-6.4-1.5-14.5,4.9-18.2C306.3,368.2,314.4,370.4,318.1,376.8z"/>
					<path fill="#FFFFFF" stroke="#000030" stroke-linecap="round" stroke-linejoin="round" stroke-miterlimit="10" d="M220.5,279.1
						c6.4,3.7,8.6,11.8,4.9,18.2c-3.7,6.4-11.8,8.6-18.2,4.9c-6.4-3.7-8.6-11.8-4.9-18.2C206,277.6,214.1,275.5,220.5,279.1z
						 M338.1,347c6.4,3.7,8.6,11.8,4.9,18.2s-11.8,8.6-18.2,4.9s-8.6-11.8-4.9-18.2C323.6,345.5,331.7,343.4,338.1,347z"/>
					<path fill="#FFFFFF" stroke="#000030" stroke-linecap="round" stroke-linejoin="round" stroke-miterlimit="10" d="M204.7,311.3
						c7.4,0,13.3,6,13.3,13.3s-6,13.3-13.3,13.3s-13.3-6-13.3-13.3S197.4,311.3,204.7,311.3z M340.5,311.3c7.4,0,13.3,6,13.3,13.3
						s-6,13.3-13.3,13.3c-7.4,0-13.3-6-13.3-13.3S333.2,311.3,340.5,311.3z"/>
					<path fill="#FFFFFF" stroke="#000030" stroke-linecap="round" stroke-linejoin="round" stroke-miterlimit="10" d="M207.2,347
						c6.4-3.7,14.5-1.5,18.2,4.9c3.7,6.4,1.5,14.5-4.9,18.2s-14.5,1.5-18.2-4.9C198.6,358.9,200.8,350.7,207.2,347z M324.8,279.1
						c6.4-3.7,14.5-1.5,18.2,4.9s1.5,14.5-4.9,18.2c-6.4,3.7-14.5,1.5-18.2-4.9C316.2,291,318.4,282.8,324.8,279.1z"/>
					<path fill="#FFFFFF" stroke="#000030" stroke-linecap="round" stroke-linejoin="round" stroke-miterlimit="10" d="M227.1,376.8
						c3.7-6.4,11.8-8.6,18.2-4.9c6.4,3.7,8.6,11.8,4.9,18.2c-3.7,6.4-11.8,8.6-18.2,4.9C225.6,391.3,223.5,383.1,227.1,376.8z
						 M295,259.2c3.7-6.4,11.8-8.6,18.2-4.9c6.4,3.7,8.6,11.8,4.9,18.2s-11.8,8.6-18.2,4.9C293.5,273.7,291.3,265.5,295,259.2z"/>
				</g>
				
					<circle fill="#FFFFFF" stroke="#000030" stroke-width="5" stroke-linecap="round" stroke-linejoin="round" stroke-miterlimit="10" cx="270.5" cy="323.2" r="6.2"/>
				
					<path fill="#FFFFFF" stroke="#000030" stroke-width="5" stroke-linecap="round" stroke-linejoin="round" stroke-miterlimit="10" d="
					M249.7,278.3l-6.4,4l-25.2-40.3l6.4-4L249.7,278.3z"/>
			</g>
			
				<path fill="#FFFFFF" stroke="#000030" stroke-width="5" stroke-linecap="round" stroke-linejoin="round" stroke-miterlimit="10" d="
				M506.4,452.5H42.3v-20.3h464.1V452.5z"/>
		</g>
		<g>
			
				<path fill="none" stroke="#000030" stroke-width="4.7179" stroke-linecap="round" stroke-linejoin="round" stroke-miterlimit="10" d="
				M594.4,311.9c0,0,12.9,36.2-28.3,36.2c-27.3,0-16.1-22.1,8.7-22.1c11.5,0,17.2,9,19.6,18.9"/>
			<path fill="none" stroke="#000030" stroke-width="5" stroke-linecap="round" stroke-linejoin="round" stroke-miterlimit="10" d="
				M534.5,251c54.4,0,59.9,27.9,59.9,27.9S607.2,315,566,315c-27.3,0-16.1-22.1,8.7-22.1c11.5,0,17.2,9,19.6,18.9"/>
			<path fill="none" stroke="#000030" stroke-width="5" stroke-linecap="round" stroke-linejoin="round" stroke-miterlimit="10" d="
				M594.2,378.9c0,0,12.9,36.3-28.3,36.3c-27.3,0-16.1-22,8.8-22c11.5,0,17.2,8.8,19.6,18.7c0,0,1.9,25.7-29.3,25.7
				c-6.6,0-58.1-2-58.1,0"/>
			
				<path fill="none" stroke="#000030" stroke-width="4.7179" stroke-linecap="round" stroke-linejoin="round" stroke-miterlimit="10" d="
				M594.4,346.1c0,0,12.9,36.2-28.3,36.2c-27.3,0-16.1-22.1,8.7-22.1c11.5,0,17.2,9,19.6,18.9"/>
		</g>
	</g>
</g>
<g id="outline">
	<path fill="#000030" d="M506.5,455h-464c-1.4,0-2.5-1.1-2.5-2.5v-20.2c0-0.4,1.2-28.5,10.9-60.5c13-42.7,35.3-73.1,64.5-87.9
		c45.6-23.1,64.4-67.7,71.8-94.6c-49.7,8.9-74.8,24.9-74.8,47.5v20.7c0,1.4-1.1,2.5-2.5,2.5H3.7c-1.4,0-2.5-1.1-2.5-2.5v-20.8
		c0-0.1,0-0.1,0-0.2c-0.1-0.7-5.3-66.1,62.1-78.6C120,147.4,230.5,145.4,264,145c0.2,0,0.4-0.1,0.5-0.1h10.3c0.2,0,0.4,0,0.6,0.1
		c33.3,0.4,143.4,2.4,199.7,12.9c34,6.3,49,26.7,55.6,42.6c7.7,18.6,6.2,35.9,6.2,36.1c0,0,0,0.1,0,0.1v20.8c0,1.4-1.1,2.5-2.5,2.5
		H428.7c-1.4,0-2.5-1.1-2.5-2.5v-20.7c0-21.8-23.5-37.5-69.9-46.6c8,26.7,27.8,70.7,74.8,93.6c30.3,14.8,53.4,45.2,66.7,87.9
		c10,32.1,11.2,60.2,11.2,60.4l0,20.3C509,453.9,507.9,455,506.5,455z M45,450h459v-17.7c0-0.2-1.1-27.7-11-59.2
		c-9-28.8-27.5-66.9-64.1-84.8c-51.1-25-71.1-73.8-78.5-100.7c-0.2-0.8,0-1.7,0.6-2.4c0.6-0.6,1.4-0.9,2.3-0.8
		c51.8,9.5,78,27.1,78,52.3v18.2h100.6v-18.5c0-0.2,0-0.3,0-0.5c0.2-3,3.4-61.8-57.7-73.2C418,152.4,307.4,150.4,274.8,150
		c-0.2,0-0.3,0-0.5-0.1H265c-0.2,0-0.3,0.1-0.5,0.1c-32.7,0.4-143.8,2.3-200.4,12.9C2.8,174.3,5.9,233,6.2,236.1c0,0.2,0,0.3,0,0.5
		v18.5h101.2v-18.2c0-26,27.9-43.9,82.8-53.1c0.8-0.1,1.7,0.1,2.3,0.8c0.6,0.6,0.8,1.5,0.6,2.3c-6.9,27.1-25.8,76.4-75.4,101.5
		c-19.5,9.9-46,32.6-61.9,84.8c-9.6,31.4-10.7,59-10.8,59.3L45,450z M327.5,211h-113c-1.4,0-2.5-1.1-2.5-2.5v-25.6
		c0-1.3,1-2.3,2.2-2.5c19.5-2.1,36.8-2.9,47.2-3.3l3-0.1c0,0,0.1,0,0.1,0l10.3,0c0,0,0.1,0,0.1,0l2.7,0.1
		c10.3,0.4,29.4,1.2,50.2,3.7c1.3,0.1,2.2,1.2,2.2,2.5v25.3C330,209.9,328.9,211,327.5,211z M217,206h108v-20.5
		c-19.8-2.2-37.8-3-47.6-3.4l-2.6-0.1l-10.2,0l-2.9,0.1c-9.9,0.4-26.2,1.1-44.6,3.1V206z"/>
</g>
</svg>
