<?xml version="1.0" encoding="utf-8"?>
<!-- Generator: Adobe Illustrator 18.1.1, SVG Export Plug-In . SVG Version: 6.00 Build 0)  -->
<svg version="1.1" xmlns="http://www.w3.org/2000/svg" xmlns:xlink="http://www.w3.org/1999/xlink" x="0px" y="0px"
	 viewBox="0 0 600 600" enable-background="new 0 0 600 600" xml:space="preserve">
<g id="illustration">
	<g>
		<g>
			
				<path fill="#FFFFFF" stroke="#000030" stroke-width="5" stroke-linecap="round" stroke-linejoin="round" stroke-miterlimit="10" d="
				M587.9,102.3l8.7,8.7v414.4H39.5l-26.9-26.9"/>
			
				<path fill="#FFFFFF" stroke="#000030" stroke-width="5" stroke-linecap="round" stroke-linejoin="round" stroke-miterlimit="10" d="
				M578.2,102.3h9.8v414.4H31.8c5.5-11.6-16.7-18-16.7-18"/>
			
				<path fill="#FFFFFF" stroke="#000030" stroke-width="5" stroke-linecap="round" stroke-linejoin="round" stroke-miterlimit="10" d="
				M569.7,94.1c0-0.9,8.5,8.5,8.5,8.5v413.3l-17.3-17.1"/>
			
				<path fill="#FFFFFF" stroke="#000030" stroke-width="5" stroke-linecap="round" stroke-linejoin="round" stroke-miterlimit="10" d="
				M561.1,75.5l8.7,8.7v414.4H12.7L4,489.8"/>
			
				<path fill="#FFFFFF" stroke="#000030" stroke-width="5" stroke-linecap="round" stroke-linejoin="round" stroke-miterlimit="10" d="
				M561.1,489.8H4V75.5h557.1V489.8z"/>
			<path fill="none" stroke="#000030" stroke-width="5" stroke-linecap="round" stroke-linejoin="round" stroke-miterlimit="10" d="
				M101.5,517.3l7.5,7.5"/>
			<path fill="none" stroke="#000030" stroke-width="5" stroke-linecap="round" stroke-linejoin="round" stroke-miterlimit="10" d="
				M80.3,498.3l-8.8-8.5V76"/>
			
				<line fill="none" stroke="#000030" stroke-width="5" stroke-linecap="round" stroke-linejoin="round" stroke-miterlimit="10" x1="561.1" y1="489.8" x2="569.9" y2="498.6"/>
			
				<line fill="none" stroke="#000030" stroke-width="5" stroke-linecap="round" stroke-linejoin="round" stroke-miterlimit="10" x1="587.9" y1="516.6" x2="596.7" y2="525.4"/>
		</g>
		<g>
			<g>
				<path fill="none" stroke="#000030" stroke-linecap="round" stroke-linejoin="round" stroke-miterlimit="10" d="M568.5,499v7.5
					H32"/>
				<path fill="none" stroke="#000030" stroke-linecap="round" stroke-linejoin="round" stroke-miterlimit="10" d="M570.5,496v12.5
					l-537.5,0"/>
				<path fill="none" stroke="#000030" stroke-linecap="round" stroke-linejoin="round" stroke-miterlimit="10" d="M25,502.5h540"/>
				<path fill="none" stroke="#000030" stroke-linecap="round" stroke-linejoin="round" stroke-miterlimit="10" d="M28,504.5h539"/>
				<path fill="none" stroke="#000030" stroke-linecap="round" stroke-linejoin="round" stroke-miterlimit="10" d="M572.5,96v414.5
					H34"/>
				<path fill="none" stroke="#000030" stroke-linecap="round" stroke-linejoin="round" stroke-miterlimit="10" d="M574.5,99v413.5
					H33"/>
			</g>
		</g>
	</g>
</g>
<g id="shadow">
	<g>
		<path fill="#000030" d="M506.2,260.9l-17.6-17.6c-2.3-2.3-6.3-2.1-8.9,0.4l-8.5,8.5L470,251l-11.6,11.6L324.6,396.4l-14.2,33.5h0
			l0,0l-6.9,16.2l49.7-21.1L487,291.2l11.6-11.6l-1.3-1.3l8.5-8.5C508.4,267.2,508.5,263.3,506.2,260.9z"/>
	</g>
</g>
<g id="illustration-2">
	<path fill="#FFFFFF" d="M318.2,390.7l-18.7,44.1l44.1-18.7l144.8-144.8c-0.5-1-0.4-2.2,0.4-3l8.6-8.6c1.6-1.6,1.8-4,0.4-5.4
		L480,236.5c-0.6-0.6-1.4-0.9-2.3-0.9c-1.1,0-2.2,0.5-3.1,1.3l-8.6,8.6c-0.5,0.5-1.1,0.7-1.8,0.7c0,0,0,0,0,0
		c-0.4,0-0.9-0.1-1.2-0.3L318.2,390.7z"/>
	<g>
		
			<path fill="#FFFFFF" stroke="#000030" stroke-width="5" stroke-linecap="round" stroke-linejoin="round" stroke-miterlimit="10" d="
			M463.6,244.6l8.5-8.5c2.6-2.6,6.5-2.8,8.9-0.4l17.6,17.6c2.3,2.3,2.1,6.3-0.4,8.9l-8.5,8.5"/>
		
			<path fill="#FFFFFF" stroke="#000030" stroke-width="5" stroke-linecap="round" stroke-linejoin="round" stroke-miterlimit="10" d="
			M295.8,438.5l21.1-49.7l133.8-133.8l28.6,28.6L345.5,417.3L295.8,438.5z"/>
		<path fill="none" stroke="#000030" stroke-width="5" stroke-linecap="round" stroke-linejoin="round" stroke-miterlimit="10" d="
			M460.8,265L327,398.8"/>
		<path fill="none" stroke="#000030" stroke-width="5" stroke-linecap="round" stroke-linejoin="round" stroke-miterlimit="10" d="
			M470.8,275L337,408.8"/>
		
			<path fill="#FFFFFF" stroke="#000030" stroke-width="5" stroke-linecap="round" stroke-linejoin="round" stroke-miterlimit="10" d="
			M316.9,388.7c0,0,9.8,1.9,9.8,9.8c0,0,9.8-0.5,9.8,9.8c0,0,10.5,0.4,9,9 M311.5,431.1c0.4-8.3-8.8-8.8-8.8-8.8"/>
		
			<path fill="#FFFFFF" stroke="#000030" stroke-width="5" stroke-linecap="round" stroke-linejoin="round" stroke-miterlimit="10" d="
			M450.7,254.9l11.6-11.6l28.6,28.6l-11.6,11.6L450.7,254.9z"/>
		<path fill="none" stroke="#000030" stroke-width="2" stroke-linecap="round" stroke-linejoin="round" stroke-miterlimit="10" d="
			M458.4,247.2l28.6,28.6"/>
		<path fill="none" stroke="#000030" stroke-width="2" stroke-linecap="round" stroke-linejoin="round" stroke-miterlimit="10" d="
			M455.4,250.3l28.6,28.6"/>
		
			<path fill="#FFFFFF" stroke="#000030" stroke-width="2" stroke-linecap="round" stroke-linejoin="round" stroke-miterlimit="10" d="
			M494.8,258c-0.6,0.6-2.4-0.1-3.1-0.8L477,242.6c-0.7-0.7-1.4-2.5-0.8-3.1"/>
	</g>
</g>
<g id="outline">
	<path fill="#000030" d="M594.5,530h-555c-0.7,0-1.3-0.3-1.8-0.7l-27.4-27.8c-0.1-0.1-0.2-0.3-0.3-0.4l-0.6-0.9l-9.6-8.4
		c-0.5-0.5-0.9-1.2-0.9-1.9V77.5c0-1.4,1.1-2.5,2.5-2.5h559.6c0.7,0,1.3,0.3,1.8,0.8l6.4,6.7c0.4,0.5,0.7,1.1,0.7,1.7v8.4
		c0.3,0.3,0.6,0.6,0.9,0.9c0.3,0.1,0.6,0.2,0.9,0.4c0.5,0.3,0.9,0.8,1,1.4c2.2,1.9,4.2,4.4,5.3,5.8c0.2,0.3,0.4,0.5,0.5,0.7l0.3,0.3
		h8.9c0.7,0,1.3,0.3,1.8,0.7l6.6,6.5c0.5,0.5,0.7,1.1,0.7,1.8v416.5C597,528.9,595.9,530,594.5,530z M40.6,525H592V112l-5.1-5h-8.7
		c-0.6,0-1.1-0.2-1.6-0.6l-1.2-1c-0.1-0.1-0.2-0.2-0.3-0.3c-0.2-0.2-0.5-0.6-0.9-1.1c-1.1-1.4-3.1-4-5.2-5.5c0,0-0.1-0.1-0.1-0.1
		c-0.3-0.1-0.5-0.3-0.7-0.5c-0.3-0.3-0.6-0.6-0.8-0.9c-0.2-0.2-0.4-0.4-0.5-0.6c-1.1-0.3-1.9-1.3-1.9-2.4v-8.9l-4.9-5.2H4v408.7
		l9,7.9c0.2,0.2,0.3,0.3,0.5,0.5l0.6,1L40.6,525z"/>
	<g>
		<path fill="#000030" d="M295.8,441c-0.7,0-1.3-0.3-1.8-0.7c-0.7-0.7-0.9-1.8-0.5-2.7l21.1-49.7c0.1-0.3,0.3-0.6,0.5-0.8
			l145.4-145.4c0.5-0.5,1.1-0.7,1.8-0.7c0,0,0,0,0,0c0.4,0,0.9,0.1,1.2,0.3l6.8-6.8c1.8-1.8,4.2-2.8,6.6-2.8c2.2,0,4.3,0.8,5.8,2.4
			l17.6,17.6c3.3,3.3,3.1,8.9-0.4,12.4l-6.8,6.8c0.5,1,0.4,2.2-0.4,3L347.3,419.1c-0.2,0.2-0.5,0.4-0.8,0.5l-49.7,21.1
			C296.5,440.9,296.1,441,295.8,441z M319,390.1l-18.5,43.6l43.6-18.5l143.3-143.3c-0.5-1-0.4-2.2,0.4-3l8.5-8.5
			c1.6-1.6,1.8-4,0.4-5.3l-17.6-17.6c-0.6-0.6-1.4-0.9-2.3-0.9c-1.1,0-2.2,0.5-3.1,1.3l-8.5,8.5c-0.5,0.5-1.1,0.7-1.8,0.7
			c0,0,0,0,0,0c-0.4,0-0.9-0.1-1.2-0.3L319,390.1z"/>
	</g>
</g>
</svg>
