<?xml version="1.0" encoding="utf-8"?>
<!-- Generator: Adobe Illustrator 18.1.1, SVG Export Plug-In . SVG Version: 6.00 Build 0)  -->
<svg version="1.1" xmlns="http://www.w3.org/2000/svg" xmlns:xlink="http://www.w3.org/1999/xlink" x="0px" y="0px"
	 viewBox="0 0 347.1 600" enable-background="new 0 0 347.1 600" xml:space="preserve">
<g id="shadow">
	<path fill="#000030" d="M345.1,572.1V60.2c0-6.9-2.6-13.1-7.1-17.6l-17.9-18c-4.6-5.3-11.2-8.7-18.8-8.7H38.1
		c-13.7,0-23.9,11.1-23.9,24.8v511.9c0,6.9,2.4,13.2,6.9,17.7l-0.3,0.1l19.1,19.2c4.5,4.5,10.6,7.3,17.5,7.3h263.3
		C334.4,597,345.1,585.9,345.1,572.1z"/>
</g>
<g id="illustration">
	<g>
		<g>
			<g>
				
					<path fill="#FFFFFF" stroke="#000030" stroke-width="5" stroke-linecap="round" stroke-linejoin="round" stroke-miterlimit="10" d="
					M307.9,12.3l18.9,18.9c4.5,4.5,7.3,10.7,7.3,17.6v511.9c0,13.7-11.1,24.9-24.9,24.9H45.9c-6.9,0-13.1-2.8-17.6-7.3L9.1,559"/>
			</g>
			
				<path fill="#FFFFFF" stroke="#000030" stroke-width="5" stroke-linecap="round" stroke-linejoin="round" stroke-miterlimit="10" d="
				M289.9,4.5c13.7,0,24.9,11.1,24.9,24.9v511.9c0,13.7-11.1,24.9-24.9,24.9H26.6c-13.7,0-24.9-11.1-24.9-24.9V29.3
				c0-13.7,11.1-24.9,24.9-24.9H289.9z"/>
			
				<path fill="#FFFFFF" stroke="#000030" stroke-width="5" stroke-linecap="round" stroke-linejoin="round" stroke-miterlimit="10" d="
				M287.5,467.2H29.1V64.1h258.4v9.8V467.2z"/>
			
				<path fill="#FFFFFF" stroke="#000030" stroke-width="5" stroke-linecap="round" stroke-linejoin="round" stroke-miterlimit="10" d="
				M158.7,495.6c0,0-0.1,0-0.1,0c-0.1,0-0.2,0-0.3,0c-12.1,0-21.9,9.8-21.9,21.9c0,12.1,9.8,21.9,21.9,21.9s21.9-9.8,21.9-21.9
				C180.1,505.5,170.6,495.8,158.7,495.6z"/>
			
				<path fill="#FFFFFF" stroke="#000030" stroke-width="5" stroke-linecap="round" stroke-linejoin="round" stroke-miterlimit="10" d="
				M37.4,467.2V73.9 M30.3,65.4l7.2,8.4H285"/>
			
				<path fill="#FFFFFF" stroke="#000030" stroke-width="5" stroke-linecap="round" stroke-linejoin="round" stroke-miterlimit="10" d="
				M305.9,9.5"/>
			
				<path fill="#FFFFFF" stroke="#000030" stroke-width="2" stroke-linecap="round" stroke-linejoin="round" stroke-miterlimit="10" d="
				M159.2,504.1c-0.3,0-0.6,0-0.9,0c-7.4,0-13.3,6-13.3,13.3c0,7.4,6,13.3,13.3,13.3s13.3-6,13.3-13.3
				C171.6,510.4,166.1,504.6,159.2,504.1z"/>
			
				<path fill="#FFFFFF" stroke="#000030" stroke-width="5" stroke-linecap="round" stroke-linejoin="round" stroke-miterlimit="10" d="
				M238.2,242.5L112.7,368.1 M212.9,242.5l-57.8,57.8 M212.9,296.4l-57.8,57.8"/>
		</g>
	</g>
	<path fill="none" stroke="#000030" stroke-width="5" stroke-linecap="round" stroke-linejoin="round" stroke-miterlimit="10" d="
		M131.1,35.5h53"/>
	<path fill="none" stroke="#000030" stroke-width="2" stroke-linecap="round" stroke-linejoin="round" stroke-miterlimit="10" d="
		M146.1,43h23"/>
	
		<line fill="#FFFFFF" stroke="#000030" stroke-width="5" stroke-linecap="round" stroke-linejoin="round" stroke-miterlimit="10" x1="315.3" y1="538.8" x2="334.5" y2="558"/>
	
		<line fill="#FFFFFF" stroke="#000030" stroke-width="5" stroke-linecap="round" stroke-linejoin="round" stroke-miterlimit="10" x1="290.5" y1="566.6" x2="309.7" y2="585.8"/>
</g>
<g id="outline">
	<g>
		<path fill="#000030" d="M309.2,588H45.9c-7.3,0-14.2-2.8-19.3-8L7.3,560.8c-0.2-0.2-0.3-0.3-0.5-0.5c-5-5.1-7.7-11.9-7.7-19V29.3
			C-0.9,14.3,11.5,2,26.6,2h263.4c8,0,15.5,3.4,20.7,9.5l17.7,17.9c5.2,5.2,7.8,12,7.8,19.3v511.9C336.1,575.7,324.3,588,309.2,588z
			 M11.3,557.7l18.8,18.8c4.2,4.2,9.8,6.5,15.8,6.5h263.4c12.3,0,21.9-10,21.9-22.3V48.7c0-6-2.1-11.6-6.3-15.8l-17.9-18
			c0,0,0-0.1-0.1-0.1c-4.3-5-10.4-7.8-16.9-7.8H26.6C14.3,7,4.1,17,4.1,29.3v511.9c0,6,2.4,11.7,6.7,15.9
			C11,557.3,11.2,557.5,11.3,557.7z"/>
	</g>
</g>
</svg>
