<?xml version="1.0" encoding="utf-8"?>
<!-- Generator: Adobe Illustrator 19.2.1, SVG Export Plug-In . SVG Version: 6.00 Build 0)  -->
<svg version="1.1" id="Layer_1" xmlns="http://www.w3.org/2000/svg" xmlns:xlink="http://www.w3.org/1999/xlink" x="0px" y="0px"
	 viewBox="0 0 600 600" style="enable-background:new 0 0 600 600;" xml:space="preserve">
<g>
	<rect style="fill:none;" width="600" height="600"/>
	<g id="shadow">
		<path style="fill:#000030;" d="M470.8,570.1V62.9c0-6.8-2.6-13-7-17.4l-17.7-17.8c-4.6-5.3-11.1-8.6-18.6-8.6H166.7
			c-13.6,0-23.7,11-23.7,24.6v507.2c0,6.8,2.4,13.1,6.8,17.5l-0.3,0.1l18.9,19c4.5,4.5,10.5,7.2,17.3,7.2h260.9
			C460.2,594.8,470.8,583.8,470.8,570.1z"/>
	</g>
	<g id="illustration">
		<g>
			<g>
				<g>
					
						<path style="fill:#FFFFFF;stroke:#000030;stroke-width:5;stroke-linecap:round;stroke-linejoin:round;stroke-miterlimit:10;" d="
						M434,15.5l18.7,18.7c4.5,4.5,7.2,10.6,7.2,17.4v507.2c0,13.6-11,24.7-24.7,24.7H174.4c-6.8,0-13-2.8-17.4-7.2l-19-19.1"/>
				</g>
				
					<path style="fill:#FFFFFF;stroke:#000030;stroke-width:5;stroke-linecap:round;stroke-linejoin:round;stroke-miterlimit:10;" d="
					M416.1,7.7c13.6,0,24.7,11,24.7,24.7v507.2c0,13.6-11,24.7-24.7,24.7H155.3c-13.6,0-24.7-11-24.7-24.7V32.3
					c0-13.6,11-24.7,24.7-24.7L416.1,7.7L416.1,7.7z"/>
				
					<path style="fill:#FFFFFF;stroke:#000030;stroke-width:5;stroke-linecap:round;stroke-linejoin:round;stroke-miterlimit:10;" d="
					M413.8,466.2h-256V66.8h256v9.7V466.2z"/>
				
					<path style="fill:#FFFFFF;stroke:#000030;stroke-width:5;stroke-linecap:round;stroke-linejoin:round;stroke-miterlimit:10;" d="
					M286.2,494.3L286.2,494.3c-0.2,0-0.3,0-0.4,0c-12,0-21.7,9.7-21.7,21.7s9.7,21.7,21.7,21.7s21.7-9.7,21.7-21.7
					C307.4,504.1,297.9,494.5,286.2,494.3z"/>
				
					<path style="fill:#FFFFFF;stroke:#000030;stroke-width:5;stroke-linecap:round;stroke-linejoin:round;stroke-miterlimit:10;" d="
					M166,466.2V76.5 M158.9,68.1l7.1,8.3h245.2"/>
				
					<path style="fill:#FFFFFF;stroke:#000030;stroke-width:5;stroke-linecap:round;stroke-linejoin:round;stroke-miterlimit:10;" d="
					M432,12.7"/>
				
					<path style="fill:#FFFFFF;stroke:#000030;stroke-width:2;stroke-linecap:round;stroke-linejoin:round;stroke-miterlimit:10;" d="
					M286.6,502.7c-0.3,0-0.6,0-0.9,0c-7.3,0-13.2,5.9-13.2,13.2c0,7.3,5.9,13.2,13.2,13.2c7.3,0,13.2-5.9,13.2-13.2
					C298.9,509,293.5,503.2,286.6,502.7z"/>
				
					<path style="fill:#FFFFFF;stroke:#000030;stroke-width:5;stroke-linecap:round;stroke-linejoin:round;stroke-miterlimit:10;" d="
					M364.9,243.5L240.6,368 M339.9,243.5l-57.3,57.3 M339.9,297l-57.3,57.2"/>
			</g>
		</g>
		<path style="fill:none;stroke:#000030;stroke-width:5;stroke-linecap:round;stroke-linejoin:round;stroke-miterlimit:10;" d="
			M258.8,38.5h52.5"/>
		<path style="fill:none;stroke:#000030;stroke-width:2;stroke-linecap:round;stroke-linejoin:round;stroke-miterlimit:10;" d="
			M273.7,45.9h22.8"/>
		<path style="fill:none;stroke:#000030;stroke-width:5;stroke-linecap:round;stroke-linejoin:round;stroke-miterlimit:10;" d="
			M441.3,537.1l19,19"/>
		<path style="fill:none;stroke:#000030;stroke-width:5;stroke-linecap:round;stroke-linejoin:round;stroke-miterlimit:10;" d="
			M416.7,564.7l19,19"/>
	</g>
	<g id="outline">
		<g>
			<path style="fill:#000030;" d="M435.3,585.9H174.4c-7.2,0-14.1-2.8-19.1-7.9l-19.1-19c-0.2-0.2-0.3-0.3-0.5-0.5
				c-5-5.1-7.6-11.8-7.6-18.8V32.4c0-14.9,12.3-27,27.2-27h261c7.9,0,15.4,3.4,20.5,9.4l17.5,17.7c5.2,5.2,7.7,11.9,7.7,19.1v507.2
				C461.9,573.7,450.2,585.9,435.3,585.9z M140.1,555.8l18.6,18.6c4.2,4.2,9.7,6.4,15.7,6.4h261c12.2,0,21.7-9.9,21.7-22.1V51.4
				c0-5.9-2.1-11.5-6.2-15.7L433.1,18c0,0,0-0.1-0.1-0.1c-4.3-5-10.3-7.7-16.7-7.7h-261c-12.2,0-22.3,9.9-22.3,22.1v507.2
				c0,5.9,2.4,11.6,6.6,15.8C139.8,555.4,140,555.6,140.1,555.8z"/>
		</g>
	</g>
</g>
</svg>
