<?xml version="1.0" encoding="utf-8"?>
<!-- Generator: Adobe Illustrator 19.2.1, SVG Export Plug-In . SVG Version: 6.00 Build 0)  -->
<svg version="1.1" id="Layer_1" xmlns="http://www.w3.org/2000/svg" xmlns:xlink="http://www.w3.org/1999/xlink" x="0px" y="0px"
	 viewBox="0 0 600 600" style="enable-background:new 0 0 600 600;" xml:space="preserve">
<g>
	<rect style="fill:none;" width="600" height="600"/>
	<g id="illustration">
		<g>
			<g>
				
					<path style="fill:#FFFFFF;stroke:#000030;stroke-width:5;stroke-linecap:round;stroke-linejoin:round;stroke-miterlimit:10;" d="
					M586.7,102.2l8.6,8.6v409.5H44.8l-26.6-26.6"/>
				
					<path style="fill:#FFFFFF;stroke:#000030;stroke-width:5;stroke-linecap:round;stroke-linejoin:round;stroke-miterlimit:10;" d="
					M577.1,102.2h9.7v409.5H37.2c5.4-11.5-16.5-17.8-16.5-17.8"/>
				
					<path style="fill:#FFFFFF;stroke:#000030;stroke-width:5;stroke-linecap:round;stroke-linejoin:round;stroke-miterlimit:10;" d="
					M568.7,94.1c0-0.9,8.4,8.4,8.4,8.4V511L560,494"/>
				
					<path style="fill:#FFFFFF;stroke:#000030;stroke-width:5;stroke-linecap:round;stroke-linejoin:round;stroke-miterlimit:10;" d="
					M560.2,75.8l8.6,8.6v409.5H18.3l-8.6-8.7"/>
				
					<path style="fill:#FFFFFF;stroke:#000030;stroke-width:5;stroke-linecap:round;stroke-linejoin:round;stroke-miterlimit:10;" d="
					M560.2,485.1H9.7V75.8h550.5V485.1z"/>
				<path style="fill:none;stroke:#000030;stroke-width:5;stroke-linecap:round;stroke-linejoin:round;stroke-miterlimit:10;" d="
					M106.1,512.3l7.4,7.4"/>
				<path style="fill:none;stroke:#000030;stroke-width:5;stroke-linecap:round;stroke-linejoin:round;stroke-miterlimit:10;" d="
					M85.1,493.5l-8.7-8.4V76.3"/>
				<path style="fill:none;stroke:#000030;stroke-width:5;stroke-linecap:round;stroke-linejoin:round;stroke-miterlimit:10;" d="
					M560.2,485.1l8.7,8.7"/>
				<path style="fill:none;stroke:#000030;stroke-width:5;stroke-linecap:round;stroke-linejoin:round;stroke-miterlimit:10;" d="
					M586.7,511.6l8.7,8.7"/>
			</g>
			<g>
				<g>
					<path style="fill:none;stroke:#000030;stroke-linecap:round;stroke-linejoin:round;stroke-miterlimit:10;" d="M567.5,494.2v7.4
						H37.4"/>
					<path style="fill:none;stroke:#000030;stroke-linecap:round;stroke-linejoin:round;stroke-miterlimit:10;" d="M569.5,491.2
						v12.4H38.4"/>
					<path style="fill:none;stroke:#000030;stroke-linecap:round;stroke-linejoin:round;stroke-miterlimit:10;" d="M30.5,497.6
						h533.6"/>
					<path style="fill:none;stroke:#000030;stroke-linecap:round;stroke-linejoin:round;stroke-miterlimit:10;" d="M33.4,499.6H566"
						/>
					<path style="fill:none;stroke:#000030;stroke-linecap:round;stroke-linejoin:round;stroke-miterlimit:10;" d="M571.5,96.1
						v409.6H39.4"/>
					<path style="fill:none;stroke:#000030;stroke-linecap:round;stroke-linejoin:round;stroke-miterlimit:10;" d="M573.4,99.1
						v408.6h-535"/>
				</g>
			</g>
		</g>
	</g>
	<g id="shadow">
		<g>
			<path style="fill:#000030;" d="M505.9,258.9l-17.4-17.4c-2.3-2.3-6.2-2.1-8.8,0.4l-8.4,8.4l-1.2-1.2l-11.4,11.5L326.5,392.9
				l-14,33.1l0,0l0,0l-6.8,16l49.1-20.8L487,288.9l11.5-11.5l-1.3-1.3l8.4-8.4C508.1,265.1,508.2,261.4,505.9,258.9z"/>
		</g>
	</g>
	<g id="illustration-2">
		<path style="fill:#FFFFFF;" d="M320.2,387.2l-18.5,43.5l43.6-18.5l143.1-143c-0.5-1-0.4-2.2,0.4-3l8.5-8.5c1.6-1.6,1.8-4,0.4-5.3
			l-17.6-17.6c-0.6-0.6-1.4-0.9-2.3-0.9c-1.1,0-2.2,0.5-3.1,1.3l-8.5,8.5c-0.5,0.5-1.1,0.7-1.8,0.7l0,0c-0.4,0-0.9-0.1-1.2-0.3
			L320.2,387.2z"/>
		<g>
			<path style="fill:#FFFFFF;stroke:#000030;stroke-width:5;stroke-linecap:round;stroke-linejoin:round;stroke-miterlimit:10;" d="
				M463.9,242.8l8.4-8.4c2.6-2.6,6.4-2.8,8.8-0.4l17.4,17.4c2.3,2.3,2.1,6.2-0.4,8.8l-8.4,8.4"/>
			<path style="fill:#FFFFFF;stroke:#000030;stroke-width:5;stroke-linecap:round;stroke-linejoin:round;stroke-miterlimit:10;" d="
				M298.1,434.5l20.8-49.1l132.2-132.2l28.3,28.3l-132.2,132L298.1,434.5z"/>
			<path style="fill:none;stroke:#000030;stroke-width:5;stroke-linecap:round;stroke-linejoin:round;stroke-miterlimit:10;" d="
				M461.1,263L328.9,395.2"/>
			<path style="fill:none;stroke:#000030;stroke-width:5;stroke-linecap:round;stroke-linejoin:round;stroke-miterlimit:10;" d="
				M471,272.9L338.8,405.1"/>
			<path style="fill:#FFFFFF;stroke:#000030;stroke-width:5;stroke-linecap:round;stroke-linejoin:round;stroke-miterlimit:10;" d="
				M318.9,385.2c0,0,9.7,1.9,9.7,9.7c0,0,9.7-0.5,9.7,9.7c0,0,10.4,0.4,8.9,8.9 M313.6,427.1c0.4-8.2-8.7-8.7-8.7-8.7"/>
			<path style="fill:#FFFFFF;stroke:#000030;stroke-width:5;stroke-linecap:round;stroke-linejoin:round;stroke-miterlimit:10;" d="
				M451.1,253.1l11.5-11.5l28.3,28.3l-11.5,11.5L451.1,253.1z"/>
			<path style="fill:none;stroke:#000030;stroke-width:2;stroke-linecap:round;stroke-linejoin:round;stroke-miterlimit:10;" d="
				M458.7,245.4l28.3,28.3"/>
			<path style="fill:none;stroke:#000030;stroke-width:2;stroke-linecap:round;stroke-linejoin:round;stroke-miterlimit:10;" d="
				M455.8,248.4l28.3,28.3"/>
			<path style="fill:#FFFFFF;stroke:#000030;stroke-width:2;stroke-linecap:round;stroke-linejoin:round;stroke-miterlimit:10;" d="
				M494.7,256.1c-0.6,0.6-2.4-0.1-3.1-0.8l-14.5-14.4c-0.7-0.7-1.4-2.5-0.8-3.1"/>
		</g>
	</g>
	<g id="outline">
		<path style="fill:#000030;" d="M593.2,524.8H44.8c-0.7,0-1.3-0.3-1.8-0.7l-27.1-27.5c-0.1-0.1-0.2-0.3-0.3-0.4l-0.6-0.9L5.5,487
			c-0.5-0.5-0.9-1.2-0.9-1.9V77.7c0-1.4,1.1-2.5,2.5-2.5H560c0.7,0,1.3,0.3,1.8,0.8l6.3,6.6c0.4,0.5,0.7,1.1,0.7,1.7v8.3
			c0.3,0.3,0.6,0.6,0.9,0.9c0.3,0.1,0.6,0.2,0.9,0.4c0.5,0.3,0.9,0.8,1,1.4c2.2,1.9,4.1,4.3,5.2,5.7c0.2,0.3,0.4,0.5,0.5,0.7
			l0.3,0.3h8.8c0.7,0,1.3,0.3,1.8,0.7l6.5,6.4c0.5,0.5,0.7,1.1,0.7,1.8v411.5C595.7,523.8,594.6,524.8,593.2,524.8z M45.9,520h544.8
			V111.8l-5-4.9h-8.6c-0.6,0-1.1-0.2-1.6-0.6l-1.2-1c-0.1-0.1-0.2-0.2-0.3-0.3c-0.2-0.2-0.5-0.6-0.9-1.1c-1.1-1.4-3.1-4-5.1-5.4
			l-0.1-0.1c-0.3-0.1-0.5-0.3-0.7-0.5c-0.3-0.3-0.6-0.6-0.8-0.9c-0.2-0.2-0.4-0.4-0.5-0.6c-1.1-0.3-1.9-1.3-1.9-2.4v-8.8l-4.8-5.1
			H9.7V484l8.9,7.8c0.2,0.2,0.3,0.3,0.5,0.5l0.6,1L45.9,520z"/>
		<g>
			<path style="fill:#000030;" d="M298.1,437c-0.7,0-1.3-0.3-1.8-0.7c-0.7-0.7-0.9-1.8-0.5-2.7l20.8-49.1c0.1-0.3,0.3-0.6,0.5-0.8
				L460.8,240c0.5-0.5,1.1-0.7,1.8-0.7l0,0c0.4,0,0.9,0.1,1.2,0.3l6.7-6.7c1.8-1.8,4.1-2.8,6.5-2.8c2.2,0,4.2,0.8,5.7,2.4l17.4,17.4
				c3.3,3.3,3.1,8.8-0.4,12.3l-6.7,6.7c0.5,1,0.4,2.2-0.4,3L348.9,415.2c-0.2,0.2-0.5,0.4-0.8,0.5L299,436.5
				C298.7,436.8,298.4,437,298.1,437z M321,386.6l-18.3,43.1l43.1-18.3l141.6-141.6c-0.5-1-0.4-2.2,0.4-3l8.4-8.4
				c1.6-1.6,1.8-4,0.4-5.2l-17.4-17.4c-0.6-0.6-1.4-0.9-2.3-0.9c-1.1,0-2.2,0.5-3.1,1.3l-8.4,8.4c-0.5,0.5-1.1,0.7-1.8,0.7l0,0
				c-0.4,0-0.9-0.1-1.2-0.3L321,386.6z"/>
		</g>
	</g>
</g>
</svg>
