<?xml version="1.0" encoding="utf-8"?>
<!-- Generator: Adobe Illustrator 18.1.1, SVG Export Plug-In . SVG Version: 6.00 Build 0)  -->
<svg version="1.1" xmlns="http://www.w3.org/2000/svg" xmlns:xlink="http://www.w3.org/1999/xlink" x="0px" y="0px"
	 viewBox="0 0 600 600" enable-background="new 0 0 600 600" xml:space="preserve">
<g id="shadow">
	
		<path fill="#FFFFFF" stroke="#000030" stroke-width="5" stroke-linecap="round" stroke-linejoin="round" stroke-miterlimit="10" d="
		M234.5,166.5v61h73v-61H234.5z"/>
	<path fill="#000030" d="M310,197.2c0,0-18-3.9-40.3-3.9c-25.5,0-36.1,3.9-36.1,3.9v-24.1H310V197.2z"/>
</g>
<g id="illustration">
	<g>
		<g>
			<g>
				
					<path fill="#FFFFFF" stroke="#000030" stroke-width="5.1806" stroke-linecap="round" stroke-linejoin="round" stroke-miterlimit="10" d="
					M474.7,160.4c-57.7-10.8-172.6-12.6-199.8-12.9v-0.1h-10.3v0.1c-27.4,0.3-142.8,2.1-200.8,12.9c-66.3,12.3-60,77.6-60,76.1
					c0,9.8,0,21,0,21h106.2c0,0,0-15.5,0-20.7c0-52.3,124-56,154.6-57.4l10.3,0c29.9,1.3,153.9,5.1,153.9,57.4c0,5.2,0,20.7,0,20.7
					h105.6c0,0,0-11.2,0-21C534.3,238,540.6,172.7,474.7,160.4z"/>
				
					<line fill="none" stroke="#000030" stroke-width="5" stroke-linecap="round" stroke-linejoin="round" stroke-miterlimit="10" x1="110" y1="236.5" x2="4" y2="236.5"/>
				
					<line fill="none" stroke="#000030" stroke-width="5" stroke-linecap="round" stroke-linejoin="round" stroke-miterlimit="10" x1="534" y1="236.5" x2="430" y2="236.5"/>
				
					<path fill="none" stroke="#000030" stroke-width="5" stroke-linecap="round" stroke-linejoin="round" stroke-miterlimit="10" d="
					M429,231.5c0,0-0.8-61-161.8-61h4.5c-160.5,0-161.4,60.9-161.4,60.9"/>
			</g>
			
				<path fill="#FFFFFF" stroke="#000030" stroke-width="5.1806" stroke-linecap="round" stroke-linejoin="round" stroke-miterlimit="10" d="
				M429.9,286.3c-72.5-35.4-81.4-119.4-81.4-119.4h-21.4v41.4H214.8v-41.4h-20.4c0,0-8.1,83.9-77.9,119.4
				c-69.9,35.4-74.1,146-74.1,146h464.1C506.4,432.3,502.5,321.7,429.9,286.3z"/>
			<g>
				<g>
					<circle fill="#000030" cx="280.3" cy="332.1" r="92.8"/>
					
						<circle fill="#FFFFFF" stroke="#000030" stroke-width="5.1806" stroke-linecap="round" stroke-linejoin="round" stroke-miterlimit="10" cx="271.1" cy="322.9" r="92.8"/>
					<g>
						
							<circle fill="#FFFFFF" stroke="#000030" stroke-width="1.2951" stroke-linecap="round" stroke-linejoin="round" stroke-miterlimit="10" cx="271.1" cy="255.2" r="13.3"/>
						
							<circle fill="#FFFFFF" stroke="#000030" stroke-width="1.2951" stroke-linecap="round" stroke-linejoin="round" stroke-miterlimit="10" cx="271.1" cy="391" r="13.3"/>
					</g>
					<g>
						
							<circle fill="#FFFFFF" stroke="#000030" stroke-width="1.2951" stroke-linecap="round" stroke-linejoin="round" stroke-miterlimit="10" cx="305" cy="381.9" r="13.3"/>
					</g>
					<g>
						
							<circle fill="#FFFFFF" stroke="#000030" stroke-width="1.2951" stroke-linecap="round" stroke-linejoin="round" stroke-miterlimit="10" cx="212.3" cy="289.2" r="13.3"/>
						
							<circle fill="#FFFFFF" stroke="#000030" stroke-width="1.2951" stroke-linecap="round" stroke-linejoin="round" stroke-miterlimit="10" cx="329.9" cy="357.1" r="13.3"/>
					</g>
					<g>
						
							<circle fill="#FFFFFF" stroke="#000030" stroke-width="1.2951" stroke-linecap="round" stroke-linejoin="round" stroke-miterlimit="10" cx="203.2" cy="323.1" r="13.3"/>
						
							<circle fill="#FFFFFF" stroke="#000030" stroke-width="1.2951" stroke-linecap="round" stroke-linejoin="round" stroke-miterlimit="10" cx="339" cy="323.1" r="13.3"/>
					</g>
					<g>
						
							<circle fill="#FFFFFF" stroke="#000030" stroke-width="1.2951" stroke-linecap="round" stroke-linejoin="round" stroke-miterlimit="10" cx="212.3" cy="357.1" r="13.3"/>
						
							<circle fill="#FFFFFF" stroke="#000030" stroke-width="1.2951" stroke-linecap="round" stroke-linejoin="round" stroke-miterlimit="10" cx="329.9" cy="289.2" r="13.3"/>
					</g>
					<g>
						
							<circle fill="#FFFFFF" stroke="#000030" stroke-width="1.2951" stroke-linecap="round" stroke-linejoin="round" stroke-miterlimit="10" cx="237.1" cy="381.9" r="13.3"/>
						
							<circle fill="#FFFFFF" stroke="#000030" stroke-width="1.2951" stroke-linecap="round" stroke-linejoin="round" stroke-miterlimit="10" cx="305" cy="264.3" r="13.3"/>
					</g>
					<g>
						
							<circle fill="#FFFFFF" stroke="#000030" stroke-width="1.2951" stroke-linecap="round" stroke-linejoin="round" stroke-miterlimit="10" cx="272.6" cy="256.7" r="13.3"/>
						
							<circle fill="#FFFFFF" stroke="#000030" stroke-width="1.2951" stroke-linecap="round" stroke-linejoin="round" stroke-miterlimit="10" cx="272.6" cy="392.5" r="13.3"/>
					</g>
					<g>
						
							<circle fill="#FFFFFF" stroke="#000030" stroke-width="1.2951" stroke-linecap="round" stroke-linejoin="round" stroke-miterlimit="10" cx="306.6" cy="383.4" r="13.3"/>
					</g>
					<g>
						
							<circle fill="#FFFFFF" stroke="#000030" stroke-width="1.2951" stroke-linecap="round" stroke-linejoin="round" stroke-miterlimit="10" cx="213.8" cy="290.7" r="13.3"/>
						
							<circle fill="#FFFFFF" stroke="#000030" stroke-width="1.2951" stroke-linecap="round" stroke-linejoin="round" stroke-miterlimit="10" cx="331.4" cy="358.6" r="13.3"/>
					</g>
					<g>
						
							<circle fill="#FFFFFF" stroke="#000030" stroke-width="1.2951" stroke-linecap="round" stroke-linejoin="round" stroke-miterlimit="10" cx="204.7" cy="324.6" r="13.3"/>
						
							<circle fill="#FFFFFF" stroke="#000030" stroke-width="1.2951" stroke-linecap="round" stroke-linejoin="round" stroke-miterlimit="10" cx="340.5" cy="324.6" r="13.3"/>
					</g>
					<g>
						
							<circle fill="#FFFFFF" stroke="#000030" stroke-width="1.2951" stroke-linecap="round" stroke-linejoin="round" stroke-miterlimit="10" cx="213.8" cy="358.6" r="13.3"/>
						
							<circle fill="#FFFFFF" stroke="#000030" stroke-width="1.2951" stroke-linecap="round" stroke-linejoin="round" stroke-miterlimit="10" cx="331.4" cy="290.7" r="13.3"/>
					</g>
					<g>
						
							<circle fill="#FFFFFF" stroke="#000030" stroke-width="1.2951" stroke-linecap="round" stroke-linejoin="round" stroke-miterlimit="10" cx="238.7" cy="383.4" r="13.3"/>
						
							<circle fill="#FFFFFF" stroke="#000030" stroke-width="1.2951" stroke-linecap="round" stroke-linejoin="round" stroke-miterlimit="10" cx="306.6" cy="265.8" r="13.3"/>
					</g>
				</g>
				
					<circle fill="#FFFFFF" stroke="#000030" stroke-width="5.1806" stroke-linecap="round" stroke-linejoin="round" stroke-miterlimit="10" cx="271.1" cy="322.9" r="6.2"/>
				
					<rect x="229.8" y="236.5" transform="matrix(0.8402 -0.5422 0.5422 0.8402 -103.8326 168.231)" fill="#FFFFFF" stroke="#000030" stroke-width="5.1806" stroke-linecap="round" stroke-linejoin="round" stroke-miterlimit="10" width="7.5" height="47.5"/>
			</g>
			
				<rect x="42.3" y="432.3" fill="#FFFFFF" stroke="#000030" stroke-width="5.1806" stroke-linecap="round" stroke-linejoin="round" stroke-miterlimit="10" width="464.1" height="20.3"/>
		</g>
		<g>
			
				<path fill="none" stroke="#000030" stroke-width="4.7179" stroke-linecap="round" stroke-linejoin="round" stroke-miterlimit="10" d="
				M594.4,311.9c0,0,12.9,36.2-28.3,36.2c-27.3,0-16.1-22.1,8.7-22.1c11.5,0,17.2,9,19.6,18.9"/>
			
				<path fill="none" stroke="#000030" stroke-width="4.7179" stroke-linecap="round" stroke-linejoin="round" stroke-miterlimit="10" d="
				M594.4,311.8c-2.4-9.9-8-18.9-19.6-18.9c-24.9,0-36.1,22.1-8.7,22.1c41.2,0,28.3-36.2,28.3-36.2s-6.1-27.9-60.5-27.9"/>
			<path fill="none" stroke="#000030" stroke-width="5" stroke-linecap="round" stroke-linejoin="round" stroke-miterlimit="10" d="
				M594.2,378.9c0,0,12.9,36.3-28.3,36.3c-27.3,0-16.1-22,8.8-22c11.5,0,17.2,8.8,19.6,18.7c0,0,1.9,25.7-29.3,25.7
				c-6.6,0-58.1-2-58.1,0"/>
			
				<path fill="none" stroke="#000030" stroke-width="4.7179" stroke-linecap="round" stroke-linejoin="round" stroke-miterlimit="10" d="
				M594.4,346.1c0,0,12.9,36.2-28.3,36.2c-27.3,0-16.1-22.1,8.7-22.1c11.5,0,17.2,9,19.6,18.9"/>
		</g>
	</g>
</g>
<g id="outline" display="none">
</g>
</svg>
