<?xml version="1.0" encoding="utf-8"?>
<!-- Generator: Adobe Illustrator 18.1.1, SVG Export Plug-In . SVG Version: 6.00 Build 0)  -->
<svg version="1.1" id="Layer_1" xmlns="http://www.w3.org/2000/svg" xmlns:xlink="http://www.w3.org/1999/xlink" x="0px" y="0px"
	 viewBox="-252.5 -285 600 600" enable-background="new -252.5 -285 600 600" xml:space="preserve">
<g id="shadow">
	<path fill="#000030" d="M221.1,288.7v-514c0-6.9-2.6-13.2-7.1-17.7L196-261c-4.6-5.3-11.2-8.7-18.9-8.7H-87.1
		c-13.8,0-24,11.1-24,24.9v514c0,6.9,2.4,13.3,6.9,17.8l-0.3,0.1l19.2,19.3c4.5,4.5,10.6,7.3,17.6,7.3h264.4
		C210.4,313.8,221.1,302.6,221.1,288.7z"/>
</g>
<g id="illustration">
	<g>
		<g>
			<g>
				
					<path fill="#FFFFFF" stroke="#000030" stroke-width="5" stroke-linecap="round" stroke-linejoin="round" stroke-miterlimit="10" d="
					M183.8-273.4l19,19c4.5,4.5,7.3,10.7,7.3,17.7v514c0,13.8-11.1,25-25,25H-79.3c-6.9,0-13.2-2.8-17.7-7.3l-19.3-19.4"/>
			</g>
			
				<path fill="#FFFFFF" stroke="#000030" stroke-width="5" stroke-linecap="round" stroke-linejoin="round" stroke-miterlimit="10" d="
				M165.7-281.2c13.8,0,25,11.1,25,25v514c0,13.8-11.1,25-25,25H-98.7c-13.8,0-25-11.1-25-25v-514.1c0-13.8,11.1-25,25-25h264.4
				V-281.2z"/>
			
				<path fill="#FFFFFF" stroke="#000030" stroke-width="5" stroke-linecap="round" stroke-linejoin="round" stroke-miterlimit="10" d="
				M163.3,183.4H-96.2v-404.8h259.5v9.8V183.4z"/>
			
				<path fill="#FFFFFF" stroke="#000030" stroke-width="5" stroke-linecap="round" stroke-linejoin="round" stroke-miterlimit="10" d="
				M34,211.9h-0.1c-0.1,0-0.2,0-0.3,0c-12.1,0-22,9.8-22,22c0,12.1,9.8,22,22,22s22-9.8,22-22C55.5,221.9,45.9,212.1,34,211.9z"/>
			
				<path fill="#FFFFFF" stroke="#000030" stroke-width="5" stroke-linecap="round" stroke-linejoin="round" stroke-miterlimit="10" d="
				M-87.8,183.4v-394.9 M-95-220l7.2,8.4h248.5"/>
			
				<path fill="#FFFFFF" stroke="#000030" stroke-width="5" stroke-linecap="round" stroke-linejoin="round" stroke-miterlimit="10" d="
				M181.8-276.2"/>
			
				<path fill="#FFFFFF" stroke="#000030" stroke-width="2" stroke-linecap="round" stroke-linejoin="round" stroke-miterlimit="10" d="
				M34.5,220.5c-0.3,0-0.6,0-0.9,0c-7.4,0-13.4,6-13.4,13.4c0,7.4,6,13.4,13.4,13.4s13.4-6,13.4-13.4
				C46.9,226.8,41.4,221,34.5,220.5z"/>
			
				<path fill="#FFFFFF" stroke="#000030" stroke-width="5" stroke-linecap="round" stroke-linejoin="round" stroke-miterlimit="10" d="
				M113.8-42.2l-126,126.1 M88.4-42.2l-58,58 M88.4,11.9l-58,58"/>
		</g>
	</g>
	<path fill="none" stroke="#000030" stroke-width="5" stroke-linecap="round" stroke-linejoin="round" stroke-miterlimit="10" d="
		M6.3-250.1h53.2"/>
	<path fill="none" stroke="#000030" stroke-width="2" stroke-linecap="round" stroke-linejoin="round" stroke-miterlimit="10" d="
		M21.3-242.5h23.1"/>
	<path fill="none" stroke="#000030" stroke-width="5" stroke-linecap="round" stroke-linejoin="round" stroke-miterlimit="10" d="
		M191.2,255.3c0,0,7.2,7.2,9.6,9.6c2.4,2.4,9.6,9.6,9.6,9.6"/>
	<path fill="none" stroke="#000030" stroke-width="5" stroke-linecap="round" stroke-linejoin="round" stroke-miterlimit="10" d="
		M166.3,283.2c0,0,5.5,5.5,7.4,7.4c3,3,11.9,11.9,11.9,11.9"/>
</g>
<g id="outline">
	<g>
		<path fill="#000030" d="M185.1,304.7H-79.3c-7.3,0-14.3-2.8-19.4-8l-19.4-19.3c-0.2-0.2-0.3-0.3-0.5-0.5c-5-5.1-7.7-11.9-7.7-19.1
			v-514.1c0-15.1,12.5-27.4,27.6-27.4h264.5c8,0,15.6,3.4,20.8,9.5l17.8,18c5.2,5.2,7.8,12,7.8,19.4v514
			C212.1,292.4,200.3,304.7,185.1,304.7z M-114,274.3l18.9,18.9c4.2,4.2,9.8,6.5,15.9,6.5h264.5c12.4,0,22-10,22-22.4v-514.1
			c0-6-2.1-11.6-6.3-15.9l-18-18.1c0,0,0-0.1-0.1-0.1c-4.3-5-10.4-7.8-17-7.8H-98.7c-12.4,0-22.6,10-22.6,22.4v514
			c0,6,2.4,11.7,6.7,16C-114.3,273.9-114.1,274.1-114,274.3z"/>
	</g>
</g>
</svg>
