<?xml version="1.0" encoding="utf-8"?>
<svg version="1.1" id="Layer_1" xmlns="http://www.w3.org/2000/svg" xmlns:xlink="http://www.w3.org/1999/xlink" x="0px" y="0px"
	 viewBox="0 0 600 600" style="enable-background:new 0 0 600 600;" xml:space="preserve">
<g>
	<rect style="fill:none;" width="600" height="600"/>
	<g>
		
			<path style="fill:#FFFFFF;stroke:#000030;stroke-width:5.0258;stroke-linecap:round;stroke-linejoin:round;stroke-miterlimit:10;" d="
			M564.7,78.9c15.1,0,27.3,12.9,27.3,28.8v315.5c0,15.2-10.1,27.5-25.1,27.5H45.6c-15.1,0-27.3-12.3-27.3-27.5"/>
		
			<path style="fill:#FFFFFF;stroke:#000030;stroke-width:4.7861;stroke-linecap:round;stroke-linejoin:round;stroke-miterlimit:10;" d="
			M584.8,394.6v21.9c0,15.1-12.3,27.4-27.4,27.4H35.1c-15.1,0-27.4-12.3-27.4-27.4v-21.9"/>
		
			<path style="fill:#000030;stroke:#000030;stroke-width:4.7861;stroke-linecap:round;stroke-linejoin:round;stroke-miterlimit:10;" d="
			M7.8,395.2v-290c0-15.1,12.3-27.4,27.4-27.4h522.3c15.1,0,27.4,12.3,27.4,27.4v290H7.8z"/>
		
			<path style="fill:#FFFFFF;stroke:#000030;stroke-width:5.0339;stroke-linecap:round;stroke-linejoin:round;stroke-miterlimit:10;" d="
			M566,379.7H26.6c-2.2,0-3.9-1.8-3.9-3.9V97.3c0-2.2,1.8-3.9,3.9-3.9H566c2.2,0,3.9,1.8,3.9,3.9v278.5
			C569.9,377.9,568.1,379.7,566,379.7z"/>
		
			<circle style="fill:#FFFFFF;stroke:#000030;stroke-width:4.7861;stroke-linecap:round;stroke-linejoin:round;stroke-miterlimit:10;" cx="296.3" cy="418.2" r="7.3"/>
		<g>
			
				<line style="fill:none;stroke:#000030;stroke-width:4.4589;stroke-linecap:round;stroke-linejoin:round;stroke-miterlimit:10;" x1="481.8" y1="208.5" x2="359.8" y2="330.5"/>
			
				<line style="fill:none;stroke:#000030;stroke-width:4.4589;stroke-linecap:round;stroke-linejoin:round;stroke-miterlimit:10;" x1="457.2" y1="208.5" x2="401.1" y2="264.6"/>
			
				<line style="fill:none;stroke:#000030;stroke-width:4.4589;stroke-linecap:round;stroke-linejoin:round;stroke-miterlimit:10;" x1="457.2" y1="260.9" x2="401.1" y2="317"/>
		</g>
		<circle style="fill:#FFFFFF;" cx="296.3" cy="85.4" r="3.5"/>
		<g>
			
				<path style="fill:#FFFFFF;stroke:#000030;stroke-width:4.7861;stroke-linecap:round;stroke-linejoin:round;stroke-miterlimit:10;" d="
				M300.1,521.5c0,0-2.3,0-36.9,0s-35-4.6-29.3-9.3c5.8-4.7,18.9-15.2,23.1-28.3c4.2-13.1,6.4-38.6,6.4-38.6H300"/>
			
				<path style="fill:#FFFFFF;stroke:#000030;stroke-width:4.7861;stroke-linecap:round;stroke-linejoin:round;stroke-miterlimit:10;" d="
				M295.8,521.5c0,0,1.5,0,36,0s35-4.6,29.3-9.3c-5.8-4.7-18.9-15.2-23.1-28.3c-4.2-13.1-6.4-38.6-6.4-38.6h-35.8"/>
			
				<line style="fill:none;stroke:#000030;stroke-width:1.1965;stroke-linecap:round;stroke-linejoin:round;stroke-miterlimit:10;" x1="256" y1="484.5" x2="337.5" y2="484.5"/>
			
				<line style="fill:none;stroke:#000030;stroke-width:1.1965;stroke-linecap:round;stroke-linejoin:round;stroke-miterlimit:10;" x1="256" y1="492.4" x2="339.7" y2="492.4"/>
			
				<line style="fill:none;stroke:#000030;stroke-width:1.2608;stroke-linecap:round;stroke-linejoin:round;stroke-miterlimit:10;" x1="344.3" y1="497" x2="251.4" y2="497"/>
			
				<line style="fill:none;stroke:#000030;stroke-width:1.3099;stroke-linecap:round;stroke-linejoin:round;stroke-miterlimit:10;" x1="348" y1="499.4" x2="247.7" y2="499.4"/>
			<path style="fill:#000030;" d="M265.3,446h65.3c0,0,5.2,18.7,3.3,18.8c-1.9,0.1-70-9.4-70-9.4L265.3,446z"/>
		</g>
		
			<line style="fill:none;stroke:#000030;stroke-width:5.0099;stroke-linecap:round;stroke-linejoin:round;stroke-miterlimit:10;" x1="584.7" y1="419.2" x2="590.3" y2="424.9"/>
		
			<line style="fill:none;stroke:#000030;stroke-width:5.0099;stroke-linecap:round;stroke-linejoin:round;stroke-miterlimit:10;" x1="559" y1="443.8" x2="566.3" y2="451.1"/>
	</g>
</g>
</svg>
