<?xml version="1.0" encoding="utf-8"?>
<svg version="1.1" id="Layer_1" xmlns="http://www.w3.org/2000/svg" xmlns:xlink="http://www.w3.org/1999/xlink" x="0px" y="0px"
	 viewBox="0 0 600 600" style="enable-background:new 0 0 600 600;" xml:space="preserve">
<g>
	<rect style="fill:none;" width="600" height="600"/>
	<g id="shadow">
		<path style="fill:#000030;" d="M585.3,314.3h-19.1V171.5c-4.6-4.6-7.2-7.2-11.8-11.8H319.5v-10.6h-7.4l3.1,3h-46.7l3.1-3h-7.4v3
			v7.6H174v-19h-65.3v8.5H59.9v10.4H30.4c-4.6,4.6-7.2,7.2-11.8,11.8v290.8c4.6,4.6,7.2,7.2,11.8,11.8h524.1
			c4.6-4.6,7.2-7.2,11.8-11.8v-118h19.1C585.3,344.2,607.2,330.7,585.3,314.3z M319.4,159.6H319v-0.8L319.4,159.6z M580.8,333.9
			c-2.5,0-4.5-2.1-4.5-4.5c0-2.5,2.1-4.5,4.5-4.5c2.5,0,4.5,2.1,4.5,4.5C585.3,331.9,583.2,333.9,580.8,333.9z"/>
	</g>
	<g id="illustration">
		<path style="fill:#FFFFFF;" d="M20.9,463.2L9,451.4V161.1l11.9-11.5h29.5c0.3,0,0.9-0.3,0.9-0.6v-10.2h12.4c0.3,0,0.4,0.1,0.4-0.2
			V129h27.5v9.6c0,0.3-0.1,0.2,0.2,0.2h7.5c0.3,0,0.2,0.1,0.2-0.2v-7.7h64.9V149c0,0.3-0.1,0.6,0.2,0.6h380.1l12,11.5v142.8
			c0,0.3-0.2,1,0.1,1h19l0.5,0.1c6,4.5,8.9,9.1,8.8,14c-0.2,7-6.8,12.4-8.8,13.9l-0.5,0.6h-19c-0.3,0-0.1-0.3-0.1,0v118l-12,11.8
			L20.9,463.2L20.9,463.2z"/>
		<g>
			<g>
				
					<path style="fill:#FFFFFF;stroke:#000030;stroke-width:4.9153;stroke-linecap:round;stroke-linejoin:round;stroke-miterlimit:10;" d="
					M575.8,333.4c0,0,21.9-13.8,0-29.5h-19.2v29.5H575.8z M571.2,314.3c2.5,0,4.5,2.1,4.5,4.5c0,2.5-2.1,4.5-4.5,4.5
					s-4.5-2.1-4.5-4.5C566.7,316.2,568.8,314.3,571.2,314.3z"/>
				
					<path style="fill:none;stroke:#000030;stroke-width:4.9153;stroke-linecap:round;stroke-linejoin:round;stroke-miterlimit:10;" d="
					M99.3,149v-19h65.3v19"/>
				
					<path style="fill:none;stroke:#000030;stroke-width:4.9153;stroke-linecap:round;stroke-linejoin:round;stroke-miterlimit:10;" d="
					M63.7,137.4V128h28.1v9.4"/>
				<rect x="50.4" y="138.6" style="fill:#FFFFFF;" width="54.7" height="11"/>
				
					<path style="fill:none;stroke:#000030;stroke-width:4.9153;stroke-linecap:round;stroke-linejoin:round;stroke-miterlimit:10;" d="
					M50.4,149v-10.4h54.7V149"/>
				
					<path style="fill:#FFFFFF;stroke:#000030;stroke-width:4.9153;stroke-linecap:round;stroke-linejoin:round;stroke-miterlimit:10;" d="
					M544.8,463.4H20.7c-4.6-4.6-7.2-7.2-11.8-11.8V160.9c4.6-4.6,7.2-7.2,11.8-11.8h524.1c4.6,4.6,7.2,7.2,11.8,11.8v290.8
					C552.1,456.2,549.4,458.9,544.8,463.4z"/>
				
					<path style="fill:none;stroke:#000030;stroke-width:4.9153;stroke-linecap:round;stroke-linejoin:round;stroke-miterlimit:10;" d="
					M554.6,219.9H9"/>
				<g>
					
						<path style="fill:none;stroke:#000030;stroke-width:4.9153;stroke-linecap:round;stroke-linejoin:round;stroke-miterlimit:10;" d="
						M507.4,209.4h-52.1c-7.7,0-14-6.2-14-14v-23.6c0-7.7,6.2-14,14-14h52.1c7.7,0,14,6.2,14,14v23.6
						C521.3,203.2,515.1,209.4,507.4,209.4z"/>
					
						<path style="fill:none;stroke:#000030;stroke-width:1.9661;stroke-linecap:round;stroke-linejoin:round;stroke-miterlimit:10;" d="
						M505.2,202.1h-47.6c-4.3,0-7.8-3.5-7.8-7.8v-21.1c0-4.3,3.5-7.8,7.8-7.8h47.6c4.3,0,7.8,3.5,7.8,7.8v21
						C512.9,198.5,509.4,202.1,505.2,202.1z"/>
					
						<path style="fill:none;stroke:#000030;stroke-width:1.9661;stroke-linecap:round;stroke-linejoin:round;stroke-miterlimit:10;" d="
						M454.7,165.9l-1.1-7.8"/>
					
						<path style="fill:none;stroke:#000030;stroke-width:1.9661;stroke-linecap:round;stroke-linejoin:round;stroke-miterlimit:10;" d="
						M449.7,170.2l-7.9-1"/>
					
						<path style="fill:none;stroke:#000030;stroke-width:1.9661;stroke-linecap:round;stroke-linejoin:round;stroke-miterlimit:10;" d="
						M521.1,197.9l-8.6-0.7"/>
					
						<path style="fill:none;stroke:#000030;stroke-width:1.9661;stroke-linecap:round;stroke-linejoin:round;stroke-miterlimit:10;" d="
						M511.1,208.9l-2.4-7.8"/>
				</g>
				
					<path style="fill:none;stroke:#000030;stroke-width:4.9153;stroke-linecap:round;stroke-linejoin:round;stroke-miterlimit:10;" d="
					M21.3,149.6v313.6 M542.3,149.6v313.6"/>
				<g>
					<g>
						<circle style="fill:#000030;" cx="296.6" cy="350.8" r="98.8"/>
						<polyline style="fill:#000030;" points="374,399.3 387.2,412.5 356.5,443.1 342.8,429.4 						"/>
						<g>
							
								<path style="fill:#FFFFFF;stroke:#000030;stroke-width:4.9153;stroke-linecap:round;stroke-linejoin:round;stroke-miterlimit:10;" d="
								M365.2,393.3l13.2,13.2l-27.7,27.7l-13.8-13.8"/>
							
								<path style="fill:#FFFFFF;stroke:#000030;stroke-width:4.9153;stroke-linecap:round;stroke-linejoin:round;stroke-miterlimit:10;" d="
								M381.6,337.1c0,54.6-44.2,98.8-98.8,98.8S184,391.6,184,337.1s44.2-98.8,98.8-98.8S381.6,282.4,381.6,337.1z"/>
							
								<path style="fill:#FFFFFF;stroke:#000030;stroke-width:4.9153;stroke-linecap:round;stroke-linejoin:round;stroke-miterlimit:10;" d="
								M364.1,337.1c0,44.9-36.4,81.3-81.3,81.3s-81.3-36.4-81.3-81.3s36.4-81.3,81.3-81.3S364.1,292.1,364.1,337.1z"/>
							
								<path style="fill:#FFFFFF;stroke:#000030;stroke-width:4.9153;stroke-linecap:round;stroke-linejoin:round;stroke-miterlimit:10;" d="
								M321.1,337.1c0,21.1-17.2,38.3-38.3,38.3s-38.3-17.2-38.3-38.3s17.2-38.3,38.3-38.3S321.1,315.8,321.1,337.1z"/>
						</g>
					</g>
					<circle style="fill:#000030;" cx="282.8" cy="337.1" r="32"/>
				</g>
				
					<path style="fill:#FFFFFF;stroke:#000030;stroke-width:4.9153;stroke-linecap:round;stroke-linejoin:round;stroke-miterlimit:10;" d="
					M96.8,184.2c0,10.2-8.3,18.5-18.5,18.5s-18.5-8.3-18.5-18.5s8.3-18.5,18.5-18.5S96.8,174,96.8,184.2z"/>
				<g>
					
						<path style="fill:#FFFFFF;stroke:#000030;stroke-width:4.9153;stroke-linecap:round;stroke-linejoin:round;stroke-miterlimit:10;" d="
						M309.4,148.2h-54.7v-7.8h54.7V148.2z"/>
					
						<path style="fill:none;stroke:#000030;stroke-width:4.9153;stroke-linecap:round;stroke-linejoin:round;stroke-miterlimit:10;" d="
						M253.8,148.2v-13.4h7.4"/>
					
						<path style="fill:none;stroke:#000030;stroke-width:4.9153;stroke-linecap:round;stroke-linejoin:round;stroke-miterlimit:10;" d="
						M302.5,134.8h7.4v13.4"/>
				</g>
			</g>
		</g>
		<g>
			
				<path style="fill:none;stroke:#000030;stroke-width:1.9661;stroke-linecap:round;stroke-linejoin:round;stroke-miterlimit:10;" d="
				M357.8,337.1c0,41.5-33.6,75-75,75s-75-33.6-75-75s33.6-75,75-75S357.8,295.6,357.8,337.1z"/>
			
				<path style="fill:none;stroke:#000030;stroke-width:1.9661;stroke-linecap:round;stroke-linejoin:round;stroke-miterlimit:10;" d="
				M212.6,337.1c0,38.8,31.5,70.2,70.2,70.2s70.2-31.5,70.2-70.2s-31.5-70.2-70.2-70.2S212.6,298.2,212.6,337.1z"/>
			
				<path style="fill:none;stroke:#000030;stroke-width:1.9661;stroke-linecap:round;stroke-linejoin:round;stroke-miterlimit:10;" d="
				M348.2,337.1c0,36.1-29.3,65.4-65.4,65.4s-65.4-29.3-65.4-65.4s29.3-65.4,65.4-65.4S348.2,300.9,348.2,337.1z"/>
			
				<path style="fill:none;stroke:#000030;stroke-width:1.9661;stroke-linecap:round;stroke-linejoin:round;stroke-miterlimit:10;" d="
				M222.3,337.1c0,33.4,27.1,60.6,60.6,60.6s60.6-27.1,60.6-60.6s-27.1-60.7-60.6-60.7S222.3,303.5,222.3,337.1z"/>
			
				<path style="fill:none;stroke:#000030;stroke-width:1.9661;stroke-linecap:round;stroke-linejoin:round;stroke-miterlimit:10;" d="
				M338.5,337.1c0,30.8-25,55.7-55.7,55.7s-55.7-25-55.7-55.7s25-55.7,55.7-55.7S338.5,306.2,338.5,337.1z"/>
			
				<path style="fill:none;stroke:#000030;stroke-width:1.9661;stroke-linecap:round;stroke-linejoin:round;stroke-miterlimit:10;" d="
				M231.9,337.1c0,28.1,22.8,50.9,50.9,50.9s50.9-22.8,50.9-50.9s-22.8-50.9-50.9-50.9S231.9,308.8,231.9,337.1z"/>
			
				<path style="fill:none;stroke:#000030;stroke-width:1.9661;stroke-linecap:round;stroke-linejoin:round;stroke-miterlimit:10;" d="
				M328.9,337.1c0,25.5-20.6,46.1-46.1,46.1s-46.1-20.6-46.1-46.1s20.6-46.1,46.1-46.1S328.9,311.6,328.9,337.1z"/>
		</g>
	</g>
	<g id="outline">
		<path style="fill:#000030;" d="M577.2,302.2c-0.4-0.3-0.9-0.2-1.5-0.2h-16.2V160.9c0-0.7-0.5-1.3-0.9-1.8l-11.9-11.8
			c-0.5-0.5-1.2-0.7-1.9-0.7h-233v-6.2c0-1.4-1.1-2.7-2.4-2.7h-54.7c-1.4,0-2.9,1.3-2.9,2.7v6.2h-84.5v-16.5c0-1.4-1.4-2.2-2.8-2.2
			H99.3c-1.4,0-2.8,0.8-2.8,2.2v5.7h-2V128c0-1.4-1.4-2-2.8-2h-28c-1.4,0-2.6,0.6-2.6,2v7.9H50.4c-1.4,0-2.1,1.4-2.1,2.8v8.1H20.7
			c-0.7,0-1.3,0.2-1.8,0.7L7,159.1c-0.5,0.5-0.9,1.1-0.9,1.7v290.8c0,0.7,0.5,1.3,0.9,1.8l11.9,12c0.5,0.5,1.2,0.9,1.9,0.9h524.1
			c0.7,0,1.3-0.4,1.8-0.9l12-11.9c0.5-0.5,0.9-1.2,0.9-1.8V336.4h16.2c0.5,0,0.9-0.4,1.3-0.6c0.4-0.3,10.5-6.8,10.9-16.5
			C588.1,313.2,584.5,307.5,577.2,302.2z M575.1,331.5h-18.4c-1.4,0-2.1,0.6-2.1,2v117.2l-10.8,10.6h-522L11,450.6V161.9l10.8-10.3
			h28.6c1.4,0,2.9-1.2,2.9-2.6v-9.2h10.4c1.4,0,2.4-0.8,2.4-2.2v-6.7h23.6v6.7c0,1.4,0.8,2.2,2.2,2.2h7.5c1.4,0,2.2-0.8,2.2-2.2
			v-4.7h60.9V149c0,1.4,0.8,2.6,2.2,2.6h92.2v-5.9v-2.9H307l0,0v8.8h236.9l10.8,10.3V304c0,1.4,0.7,2.9,2.1,2.9H575
			c5.5,3.9,8.2,8.3,8.1,12.5C582.8,325.4,576.9,329.5,575.1,331.5z"/>
	</g>
</g>
</svg>
