<?xml version="1.0" encoding="utf-8"?>
<!-- Generator: Adobe Illustrator 15.0.0, SVG Export Plug-In . SVG Version: 6.00 Build 0)  -->
<!DOCTYPE svg PUBLIC "-//W3C//DTD SVG 1.1//EN" "http://www.w3.org/Graphics/SVG/1.1/DTD/svg11.dtd">
<svg version="1.1" id="Layer_1" xmlns="http://www.w3.org/2000/svg" xmlns:xlink="http://www.w3.org/1999/xlink" x="0px" y="0px"
	 width="392.999px" height="277.792px" viewBox="0 0 392.999 277.792" enable-background="new 0 0 392.999 277.792"
	 xml:space="preserve">
<g>
	<path fill-rule="evenodd" clip-rule="evenodd" fill="#24150B" d="M24.991,74.579c0,0-15.848-3.396-6.792-27.734
		c9.056-24.338-8.49-29.998-15.282-34.525c0,0,19.737,9.443,11.037,28.865c-4.709,10.514-8.584,24.86,0,33.395
		C18.116,78.717,24.991,74.579,24.991,74.579z"/>
	<path fill-rule="evenodd" clip-rule="evenodd" fill="#24150B" d="M378.293,99.825c-31.268-52.217-76.93-8.174-86.71,2.41
		c-7.708-9.886-17.081-18.428-27.71-25.201c4.259,0.321,6.651-0.085,6.651-1.851c0-5.354-21.979-12.925-51.413-14.913
		c0.688-1.854,1.065-3.86,1.065-5.955c0-9.459-7.668-17.128-17.128-17.128c-9.459,0-17.127,7.669-17.127,17.128
		c0,2.172,0.408,4.247,1.146,6.159c-28.042,2.258-48.663,9.523-48.663,14.709c0,1.766,2.393,2.172,6.65,1.851
		c-20.526,13.081-36.381,32.745-44.552,55.984c-6.535-1.777-22.082-7.612-34.576-24.891c-16.258-22.485-24.56-33.323-24.56-33.323
		s-23.43,6.688-28.712,6.688s-0.692,2.421,4.843,4.843c5.535,2.421,30.184,47.392,39.479,87.519
		c8.419,36.343,27.941,46.863,51.852,49.296c6.67,11.576,15.416,21.819,25.73,30.243c-7.883,1.873-12.447,4.089-12.447,6.465
		c0,6.721,36.49,12.169,81.504,12.169s81.504-5.448,81.504-12.169c0-2.241-4.062-4.341-11.142-6.144
		c14.374-11.629,25.725-26.788,32.723-44.145c6.191-4.452,13.775-9.281,19.359-13.577
		C335.053,189.074,412.885,157.595,378.293,99.825z M232.531,89.545c0,0,9.339,3.396,22.073,0
		c12.734-3.396,42.38,41.667,42.447,51.786C297.264,173.028,307.238,120.957,232.531,89.545z M357.191,163.328
		c-11.961,14.349-30.807,20.615-44.078,23.337c0.941-5.746,1.436-11.641,1.436-17.65c0-21.196-6.09-40.978-16.619-57.729
		c41.648-41.864,58.763-16.753,67.91-5.234C375.18,117.813,377.256,139.261,357.191,163.328z"/>
</g>
</svg>
