<?xml version="1.0" encoding="utf-8"?>
<!-- Generator: Adobe Illustrator 15.0.0, SVG Export Plug-In . SVG Version: 6.00 Build 0)  -->
<!DOCTYPE svg PUBLIC "-//W3C//DTD SVG 1.1//EN" "http://www.w3.org/Graphics/SVG/1.1/DTD/svg11.dtd">
<svg version="1.1" id="Layer_1" xmlns="http://www.w3.org/2000/svg" xmlns:xlink="http://www.w3.org/1999/xlink" x="0px" y="0px"
	 width="300px" height="200px" viewBox="0 0 300 200" enable-background="new 0 0 300 200" xml:space="preserve">
<rect fill="#616161" width="300" height="200"/>
<rect x="33" y="160" fill="#FFFFFF" width="87" height="26"/>
<line fill="none" stroke="#B3B3B3" stroke-miterlimit="10" x1="149.5" y1="23" x2="149.5" y2="186"/>
<circle fill="#FFFFFF" cx="75.5" cy="114" r="8"/>
<g>
	
		<circle fill="none" stroke="#FFFFFF" stroke-width="2" stroke-linecap="round" stroke-miterlimit="10" stroke-dasharray="0,3.9864" cx="75.5" cy="114" r="16.5"/>
</g>
<circle fill="#CF1983" cx="224.5" cy="114" r="8"/>
<g>
	
		<circle fill="none" stroke="#FFFFFF" stroke-width="2" stroke-linecap="round" stroke-miterlimit="10" stroke-dasharray="0,3.9864" cx="224.5" cy="114" r="16.5"/>
</g>
<g>
	
		<circle fill="none" stroke="#C8C8C8" stroke-width="2" stroke-linecap="round" stroke-miterlimit="10" stroke-dasharray="0,7.1009" cx="224.5" cy="114" r="26"/>
</g>
<g>
	<path fill="#FFFFFF" d="M57.187,47.673l-0.547,0.449c-0.596-0.951-1.412-1.426-2.445-1.426c-0.422,0-0.807,0.104-1.154,0.311
		s-0.621,0.488-0.82,0.842s-0.299,0.738-0.299,1.152c0,0.555,0.188,0.986,0.562,1.295s0.913,0.628,1.613,0.959l2.305,1.203
		c0.917,0.578,1.375,1.377,1.375,2.398c0,0.648-0.177,1.241-0.531,1.777s-0.822,0.958-1.402,1.266s-1.195,0.461-1.844,0.461
		c-0.823,0-1.549-0.234-2.178-0.701s-1.086-1.098-1.373-1.893l0.672-0.301c0.273,0.677,0.654,1.209,1.141,1.596
		s1.078,0.58,1.773,0.58c0.523,0,1.013-0.126,1.469-0.379s0.82-0.597,1.094-1.033s0.41-0.915,0.41-1.436
		c0-0.414-0.119-0.771-0.355-1.07s-0.505-0.538-0.805-0.715s-0.723-0.398-1.27-0.664l-2.176-1.152
		c-0.833-0.516-1.25-1.236-1.25-2.16c0-0.588,0.131-1.116,0.395-1.582s0.629-0.828,1.1-1.086s1.002-0.387,1.596-0.387
		c0.609,0,1.18,0.152,1.713,0.457S56.897,47.152,57.187,47.673z"/>
	<path fill="#FFFFFF" d="M61.006,46.138v12.062h-0.766V46.138H61.006z"/>
	<path fill="#FFFFFF" d="M74.975,46.138v12.461L64.846,47.833v10.367H64.08V45.978l10.129,10.688V46.138H74.975z"/>
	<path fill="#FFFFFF" d="M84.271,52.392h5.09c0,0.549-0.033,1.054-0.1,1.514s-0.193,0.9-0.379,1.32s-0.449,0.814-0.787,1.182
		c-0.565,0.615-1.254,1.094-2.068,1.438s-1.649,0.516-2.506,0.516c-0.82,0-1.606-0.162-2.357-0.484s-1.416-0.771-1.992-1.344
		s-1.029-1.232-1.355-1.977s-0.49-1.525-0.49-2.34c0-1.127,0.283-2.17,0.848-3.129s1.33-1.716,2.295-2.273s2.014-0.836,3.146-0.836
		c0.711,0,1.387,0.113,2.027,0.338s1.228,0.549,1.762,0.971s1.016,0.924,1.445,1.508l-0.625,0.496
		c-0.258-0.393-0.559-0.753-0.902-1.08s-0.709-0.602-1.098-0.824s-0.807-0.393-1.258-0.512s-0.917-0.178-1.398-0.178
		c-0.956,0-1.857,0.254-2.703,0.762s-1.52,1.182-2.02,2.023s-0.75,1.737-0.75,2.688c0,0.969,0.246,1.875,0.738,2.719
		s1.159,1.514,2,2.01s1.752,0.744,2.734,0.744c1.266,0,2.449-0.443,3.551-1.328c0.336-0.287,0.611-0.593,0.824-0.92
		s0.371-0.678,0.473-1.053s0.16-0.785,0.176-1.23h-4.32V52.392z"/>
	<path fill="#FFFFFF" d="M92.478,46.138v11.344h3.074v0.719h-3.84V46.138H92.478z"/>
	<path fill="#FFFFFF" d="M103.18,46.857h-4.992v4.383h4.867v0.723h-4.867v5.52h4.992v0.719h-5.758V46.138h5.758V46.857z"/>
	<path fill="#FFFFFF" d="M66.247,64.544v1.055c-0.463-0.568-1.068-1.027-1.812-1.377s-1.49-0.525-2.234-0.525
		c-0.74,0-1.442,0.148-2.107,0.443s-1.252,0.703-1.762,1.223s-0.906,1.116-1.191,1.789s-0.428,1.372-0.428,2.096
		c0,0.695,0.143,1.367,0.43,2.014s0.682,1.219,1.188,1.717c0.526,0.498,1.13,0.899,1.812,1.205s1.369,0.459,2.059,0.459
		c0.466,0,0.957-0.079,1.473-0.236s1.001-0.377,1.457-0.658s0.828-0.596,1.117-0.945v1.055c-1.206,1.002-2.544,1.504-4.016,1.504
		c-1.099,0-2.133-0.279-3.102-0.838s-1.742-1.313-2.32-2.264s-0.867-1.975-0.867-3.074c0-1.117,0.286-2.152,0.857-3.105
		s1.342-1.708,2.311-2.266s2.014-0.836,3.137-0.836c0.484,0,0.964,0.061,1.439,0.182s0.931,0.299,1.367,0.533
		S65.888,64.211,66.247,64.544z"/>
	<path fill="#FFFFFF" d="M69.735,63.138v11.344h3.074v0.719h-3.84V63.138H69.735z"/>
	<path fill="#FFFFFF" d="M75.445,63.138v12.062H74.68V63.138H75.445z"/>
	<path fill="#FFFFFF" d="M88.101,64.544v1.055c-0.463-0.568-1.068-1.027-1.812-1.377s-1.49-0.525-2.234-0.525
		c-0.74,0-1.442,0.148-2.107,0.443s-1.252,0.703-1.762,1.223s-0.906,1.116-1.191,1.789s-0.428,1.372-0.428,2.096
		c0,0.695,0.143,1.367,0.43,2.014s0.682,1.219,1.188,1.717c0.526,0.498,1.13,0.899,1.812,1.205s1.369,0.459,2.059,0.459
		c0.466,0,0.957-0.079,1.473-0.236s1.001-0.377,1.457-0.658s0.828-0.596,1.117-0.945v1.055c-1.206,1.002-2.544,1.504-4.016,1.504
		c-1.099,0-2.133-0.279-3.102-0.838s-1.742-1.313-2.32-2.264s-0.867-1.975-0.867-3.074c0-1.117,0.286-2.152,0.857-3.105
		s1.342-1.708,2.311-2.266s2.014-0.836,3.137-0.836c0.484,0,0.964,0.061,1.439,0.182s0.931,0.299,1.367,0.533
		S87.742,64.211,88.101,64.544z"/>
	<path fill="#FFFFFF" d="M91.589,68.767l5.73-5.629h1.023l-5.906,5.805l6.273,6.258h-1.008l-5.793-5.762l-0.32,0.32v5.441h-0.766
		V63.138h0.766V68.767z"/>
</g>
<g>
	<path fill="#616161" d="M57.461,166.888v12.062h-1.82v-12.062H57.461z"/>
	<path fill="#616161" d="M60.359,178.95v-12.883l8.797,9.203v-8.383h1.82v12.797l-8.797-9.18v8.445H60.359z"/>
	<path fill="#616161" d="M79.891,168.599h-4.203v2.898h4.055v1.711h-4.055v5.742h-1.82v-12.062h6.023V168.599z"/>
	<path fill="#616161" d="M81.414,172.864c0-1.698,0.622-3.156,1.867-4.375c1.239-1.219,2.729-1.828,4.469-1.828
		c1.719,0,3.192,0.615,4.422,1.844c1.234,1.229,1.852,2.706,1.852,4.43c0,1.734-0.62,3.206-1.859,4.414
		c-1.245,1.214-2.748,1.82-4.508,1.82c-1.558,0-2.956-0.539-4.195-1.617C82.096,176.359,81.414,174.797,81.414,172.864z
		 M83.25,172.884c0,1.332,0.448,2.428,1.344,3.286c0.891,0.859,1.919,1.288,3.086,1.288c1.266,0,2.333-0.437,3.203-1.312
		c0.87-0.884,1.305-1.962,1.305-3.231c0-1.285-0.43-2.362-1.289-3.231c-0.854-0.875-1.912-1.312-3.172-1.312
		c-1.255,0-2.315,0.437-3.18,1.312C83.682,170.547,83.25,171.614,83.25,172.884z"/>
	<path fill="#616161" d="M96.25,178.075c0-0.292,0.106-0.544,0.32-0.758c0.213-0.213,0.469-0.32,0.766-0.32s0.552,0.107,0.766,0.32
		c0.213,0.214,0.32,0.469,0.32,0.766c0,0.302-0.107,0.56-0.32,0.773c-0.208,0.208-0.464,0.312-0.766,0.312
		c-0.308,0-0.565-0.104-0.773-0.312C96.354,178.648,96.25,178.388,96.25,178.075z"/>
</g>
<g>
	<path fill="#FFFFFF" d="M74.402,25.599h-2.086l1-1.711h2.906v12.062h-1.82V25.599z"/>
	<path fill="#FFFFFF" d="M80.379,35.076c0-0.292,0.106-0.544,0.32-0.758c0.213-0.213,0.469-0.32,0.766-0.32s0.552,0.107,0.766,0.32
		c0.213,0.214,0.32,0.469,0.32,0.766c0,0.302-0.107,0.56-0.32,0.773c-0.208,0.208-0.464,0.312-0.766,0.312
		c-0.308,0-0.565-0.104-0.773-0.312C80.483,35.649,80.379,35.388,80.379,35.076z"/>
</g>
<g>
	<path fill="#FFFFFF" d="M221.602,34.24h4.492v1.711h-8.102l4.188-5.07c0.411-0.505,0.756-0.942,1.035-1.312
		c0.278-0.37,0.491-0.68,0.637-0.93c0.297-0.489,0.445-0.93,0.445-1.32c0-0.562-0.198-1.034-0.594-1.414
		c-0.396-0.38-0.886-0.57-1.469-0.57c-1.219,0-1.917,0.722-2.094,2.164h-1.812c0.292-2.542,1.575-3.812,3.852-3.812
		c1.099,0,2.021,0.349,2.766,1.047c0.75,0.698,1.125,1.562,1.125,2.594c0,0.656-0.175,1.3-0.523,1.93
		c-0.177,0.328-0.437,0.718-0.777,1.168c-0.341,0.451-0.772,0.983-1.293,1.598L221.602,34.24z"/>
	<path fill="#FFFFFF" d="M228.852,35.076c0-0.292,0.106-0.544,0.32-0.758c0.213-0.213,0.469-0.32,0.766-0.32s0.552,0.107,0.766,0.32
		c0.213,0.214,0.32,0.469,0.32,0.766c0,0.302-0.107,0.56-0.32,0.773c-0.208,0.208-0.464,0.312-0.766,0.312
		c-0.308,0-0.565-0.104-0.773-0.312C228.956,35.649,228.852,35.388,228.852,35.076z"/>
</g>
<rect x="181" y="160" fill="#CF1983" width="87" height="26"/>
<g>
	<path fill="#FFFFFF" d="M201.469,167.532v2.152c-1.052-0.88-2.141-1.32-3.266-1.32c-1.24,0-2.284,0.445-3.133,1.336
		c-0.854,0.886-1.281,1.969-1.281,3.25c0,1.266,0.427,2.333,1.281,3.203c0.854,0.87,1.901,1.305,3.141,1.305
		c0.641,0,1.185-0.104,1.633-0.312c0.25-0.104,0.509-0.245,0.777-0.422c0.268-0.177,0.551-0.391,0.848-0.641v2.199
		c-1.042,0.591-2.136,0.887-3.281,0.887c-1.724,0-3.195-0.602-4.414-1.805c-1.214-1.213-1.82-2.677-1.82-4.391
		c0-1.536,0.508-2.906,1.523-4.109c1.25-1.474,2.867-2.211,4.852-2.211C199.411,166.653,200.458,166.946,201.469,167.532z"/>
	<path fill="#FFFFFF" d="M203.086,172.864c0-1.698,0.622-3.156,1.867-4.375c1.239-1.219,2.729-1.828,4.469-1.828
		c1.719,0,3.192,0.615,4.422,1.844c1.234,1.229,1.852,2.706,1.852,4.43c0,1.734-0.62,3.206-1.859,4.414
		c-1.245,1.214-2.748,1.82-4.508,1.82c-1.558,0-2.956-0.539-4.195-1.617C203.768,176.359,203.086,174.797,203.086,172.864z
		 M204.922,172.884c0,1.332,0.448,2.428,1.344,3.286c0.891,0.859,1.919,1.288,3.086,1.288c1.266,0,2.333-0.437,3.203-1.312
		c0.87-0.884,1.305-1.962,1.305-3.231c0-1.285-0.43-2.362-1.289-3.231c-0.854-0.875-1.912-1.312-3.172-1.312
		c-1.255,0-2.315,0.437-3.18,1.312C205.354,170.547,204.922,171.614,204.922,172.884z"/>
	<path fill="#FFFFFF" d="M219.805,166.888v10.352h3.547v1.711h-5.367v-12.062H219.805z"/>
	<path fill="#FFFFFF" d="M223.984,172.864c0-1.698,0.622-3.156,1.867-4.375c1.239-1.219,2.729-1.828,4.469-1.828
		c1.719,0,3.192,0.615,4.422,1.844c1.234,1.229,1.852,2.706,1.852,4.43c0,1.734-0.62,3.206-1.859,4.414
		c-1.245,1.214-2.748,1.82-4.508,1.82c-1.558,0-2.956-0.539-4.195-1.617C224.667,176.359,223.984,174.797,223.984,172.864z
		 M225.82,172.884c0,1.332,0.448,2.428,1.344,3.286c0.891,0.859,1.919,1.288,3.086,1.288c1.266,0,2.333-0.437,3.203-1.312
		c0.87-0.884,1.305-1.962,1.305-3.231c0-1.285-0.43-2.362-1.289-3.231c-0.854-0.875-1.912-1.312-3.172-1.312
		c-1.255,0-2.315,0.437-3.18,1.312C226.252,170.547,225.82,171.614,225.82,172.884z"/>
	<path fill="#FFFFFF" d="M240.703,166.888v7.26c0,1.036,0.169,1.793,0.508,2.272c0.505,0.692,1.216,1.038,2.133,1.038
		c0.922,0,1.635-0.346,2.141-1.038c0.338-0.463,0.508-1.221,0.508-2.272v-7.26h1.82v7.766c0,1.271-0.396,2.318-1.188,3.141
		c-0.891,0.917-1.984,1.375-3.281,1.375s-2.388-0.458-3.273-1.375c-0.792-0.823-1.188-1.87-1.188-3.141v-7.766H240.703z"/>
	<path fill="#FFFFFF" d="M254.789,173.81l3.734,5.141h-2.227l-3.445-4.938h-0.328v4.938h-1.82v-12.062h2.133
		c1.594,0,2.745,0.3,3.453,0.898c0.781,0.667,1.172,1.547,1.172,2.641c0,0.854-0.245,1.589-0.734,2.203
		C256.237,173.245,255.591,173.638,254.789,173.81z M252.523,172.427h0.578c1.724,0,2.586-0.659,2.586-1.977
		c0-1.234-0.839-1.852-2.516-1.852h-0.648V172.427z"/>
</g>
<g>
	<path fill="#FFFFFF" d="M196.077,58.2V46.138h2.176c0.627,0,1.193,0.042,1.695,0.127s0.986,0.24,1.451,0.465
		s0.91,0.535,1.334,0.928c0.62,0.576,1.094,1.256,1.424,2.043s0.494,1.615,0.494,2.484c0,0.841-0.16,1.643-0.479,2.406
		s-0.778,1.432-1.377,2.008c-0.323,0.312-0.658,0.574-1.006,0.783s-0.708,0.374-1.08,0.492s-0.755,0.203-1.148,0.252
		s-0.83,0.074-1.309,0.074H196.077z M196.843,57.481h1.395c0.844,0,1.592-0.107,2.244-0.322s1.253-0.593,1.803-1.135
		c0.516-0.516,0.912-1.104,1.188-1.766s0.414-1.353,0.414-2.074c0-0.771-0.151-1.505-0.453-2.203s-0.733-1.302-1.293-1.812
		c-0.542-0.49-1.123-0.831-1.744-1.023s-1.34-0.289-2.158-0.289h-1.395V57.481z"/>
	<path fill="#FFFFFF" d="M212.526,45.978c1.109,0,2.145,0.279,3.107,0.836s1.728,1.312,2.297,2.266s0.854,1.983,0.854,3.09
		s-0.285,2.136-0.854,3.088s-1.334,1.707-2.297,2.266s-1.998,0.838-3.107,0.838s-2.145-0.279-3.107-0.838s-1.728-1.314-2.297-2.266
		s-0.854-1.981-0.854-3.088c0-0.831,0.163-1.623,0.488-2.375s0.78-1.417,1.363-1.992s1.254-1.023,2.014-1.344
		S211.69,45.978,212.526,45.978z M212.526,46.696c-0.982,0-1.894,0.248-2.736,0.742s-1.512,1.164-2.008,2.008
		s-0.744,1.751-0.744,2.723s0.248,1.879,0.744,2.723s1.166,1.513,2.008,2.008s1.754,0.742,2.736,0.742
		c0.977,0,1.887-0.25,2.732-0.748s1.516-1.168,2.012-2.008s0.744-1.746,0.744-2.717c0-0.729-0.145-1.428-0.434-2.098
		s-0.686-1.255-1.189-1.758s-1.09-0.898-1.76-1.186S213.26,46.696,212.526,46.696z"/>
	<path fill="#FFFFFF" d="M228.447,53.431v-7.293h0.766v7.52c0,0.792-0.044,1.426-0.133,1.902s-0.316,0.941-0.684,1.395
		c-0.396,0.451-0.886,0.797-1.471,1.041s-1.187,0.365-1.807,0.365c-0.623,0-1.225-0.122-1.807-0.365s-1.074-0.59-1.475-1.041
		c-0.367-0.458-0.595-0.924-0.684-1.398s-0.133-1.107-0.133-1.898v-7.52h0.77v7.293c0,0.737,0.035,1.338,0.104,1.805
		s0.242,0.879,0.518,1.238c0.284,0.365,0.683,0.65,1.197,0.857s1.018,0.311,1.51,0.311c0.495,0,0.998-0.104,1.51-0.311
		s0.91-0.493,1.193-0.857c0.276-0.357,0.449-0.769,0.52-1.236S228.447,54.167,228.447,53.431z"/>
	<path fill="#FFFFFF" d="M235.259,58.2h-3.086V46.138h2.414c0.555,0,1.028,0.045,1.42,0.135s0.75,0.279,1.076,0.568
		c0.672,0.583,1.008,1.416,1.008,2.496c0,1.115-0.463,1.936-1.391,2.465c0.487,0.099,0.92,0.291,1.301,0.576s0.674,0.64,0.883,1.064
		s0.312,0.891,0.312,1.398c0,1.029-0.374,1.861-1.121,2.496c-0.391,0.331-0.807,0.557-1.25,0.68S235.861,58.2,235.259,58.2z
		 M232.939,46.856v4.75h1.328h0.387c0.385,0,0.714-0.028,0.986-0.084s0.535-0.176,0.787-0.361c0.336-0.245,0.57-0.518,0.701-0.82
		s0.197-0.674,0.197-1.117c0-0.417-0.082-0.799-0.246-1.148s-0.413-0.627-0.746-0.836c-0.273-0.172-0.566-0.279-0.879-0.32
		s-0.708-0.062-1.188-0.062H232.939z M232.939,52.329v5.152h1.84c0.573,0,1.045-0.026,1.416-0.078s0.721-0.181,1.049-0.387
		c0.789-0.531,1.184-1.246,1.184-2.145c0-0.458-0.109-0.885-0.328-1.281s-0.525-0.689-0.918-0.879
		c-0.513-0.255-1.361-0.383-2.543-0.383H232.939z"/>
	<path fill="#FFFFFF" d="M242.458,46.138v11.344h3.074V58.2h-3.84V46.138H242.458z"/>
	<path fill="#FFFFFF" d="M253.161,46.856h-4.992v4.383h4.867v0.723h-4.867v5.52h4.992V58.2h-5.758V46.138h5.758V46.856z"/>
	<path fill="#FFFFFF" d="M213.747,64.544v1.055c-0.463-0.568-1.068-1.027-1.812-1.377s-1.49-0.525-2.234-0.525
		c-0.74,0-1.442,0.148-2.107,0.443s-1.252,0.703-1.762,1.223s-0.906,1.116-1.191,1.789s-0.428,1.372-0.428,2.096
		c0,0.695,0.143,1.367,0.43,2.014s0.682,1.219,1.188,1.717c0.526,0.498,1.13,0.899,1.812,1.205s1.369,0.459,2.059,0.459
		c0.466,0,0.957-0.079,1.473-0.236s1.001-0.377,1.457-0.658s0.828-0.596,1.117-0.945v1.055c-1.206,1.002-2.544,1.504-4.016,1.504
		c-1.099,0-2.133-0.279-3.102-0.838s-1.742-1.313-2.32-2.264s-0.867-1.975-0.867-3.074c0-1.117,0.286-2.152,0.857-3.105
		s1.342-1.708,2.311-2.266s2.014-0.836,3.137-0.836c0.484,0,0.964,0.061,1.439,0.182s0.931,0.299,1.367,0.533
		S213.388,64.21,213.747,64.544z"/>
	<path fill="#FFFFFF" d="M217.235,63.138v11.344h3.074V75.2h-3.84V63.138H217.235z"/>
	<path fill="#FFFFFF" d="M222.945,63.138V75.2h-0.766V63.138H222.945z"/>
	<path fill="#FFFFFF" d="M235.601,64.544v1.055c-0.463-0.568-1.068-1.027-1.812-1.377s-1.49-0.525-2.234-0.525
		c-0.74,0-1.442,0.148-2.107,0.443s-1.252,0.703-1.762,1.223s-0.906,1.116-1.191,1.789s-0.428,1.372-0.428,2.096
		c0,0.695,0.143,1.367,0.43,2.014s0.682,1.219,1.188,1.717c0.526,0.498,1.13,0.899,1.812,1.205s1.369,0.459,2.059,0.459
		c0.466,0,0.957-0.079,1.473-0.236s1.001-0.377,1.457-0.658s0.828-0.596,1.117-0.945v1.055c-1.206,1.002-2.544,1.504-4.016,1.504
		c-1.099,0-2.133-0.279-3.102-0.838s-1.742-1.313-2.32-2.264s-0.867-1.975-0.867-3.074c0-1.117,0.286-2.152,0.857-3.105
		s1.342-1.708,2.311-2.266s2.014-0.836,3.137-0.836c0.484,0,0.964,0.061,1.439,0.182s0.931,0.299,1.367,0.533
		S235.242,64.21,235.601,64.544z"/>
	<path fill="#FFFFFF" d="M239.089,68.767l5.73-5.629h1.023l-5.906,5.805l6.273,6.258h-1.008l-5.793-5.762l-0.32,0.32V75.2h-0.766
		V63.138h0.766V68.767z"/>
</g>
<g>
	<polygon fill="#FFFFFF" points="83.104,127.574 80.26,132.294 76.246,114.958 91.463,124.181 86.092,125.411 92.908,134.823 
		89.919,136.987 	"/>
	<path d="M77,116l13.149,7.969l-4.905,1.123l6.966,9.62l-2.179,1.577l-6.966-9.62l-2.597,4.31L77,116 M75.491,113.916l0.535,2.31
		l3.468,14.979l0.557,2.405l1.274-2.114l1.817-3.016l6.079,8.396l0.586,0.81l0.81-0.586l2.179-1.577l0.81-0.586l-0.586-0.81
		l-6.08-8.396l3.432-0.786l2.406-0.55l-2.111-1.279l-13.149-7.969L75.491,113.916L75.491,113.916z"/>
</g>
<g>
	<polygon fill="#FFFFFF" points="231.104,127.574 228.26,132.294 224.246,114.958 239.463,124.181 234.092,125.411 240.908,134.823 
		237.919,136.987 	"/>
	<path d="M225,116l13.149,7.969l-4.905,1.123l6.966,9.62l-2.179,1.577l-6.966-9.62l-2.597,4.31L225,116 M223.491,113.916l0.535,2.31
		l3.468,14.979l0.557,2.405l1.274-2.114l1.817-3.016l6.079,8.396l0.586,0.81l0.81-0.586l2.179-1.577l0.81-0.586l-0.586-0.81
		l-6.08-8.396l3.432-0.786l2.406-0.55l-2.111-1.279l-13.148-7.969L223.491,113.916L223.491,113.916z"/>
</g>
<g>
	<path fill="#FFFFFF" d="M287.351,10.679l-3.922-5.297h2.445l2.722,3.759l2.861-3.759h2.464l-4.106,5.297l4.31,5.801h-2.409
		l-3.156-4.248l-3.249,4.248h-2.436L287.351,10.679z"/>
</g>
</svg>
